<svg viewBox="0 0 60 60" fill="none" xmlns="http://www.w3.org/2000/svg">
<g clip-path="url(#clip0)">
<path d="M59.9995 30C60.0042 33.8539 59.2644 37.6724 57.8206 41.2456C57.817 41.2536 57.8143 41.2607 57.8108 41.2686C56.8403 43.6613 55.5637 45.9188 54.0129 47.9831C53.7137 48.3825 53.4052 48.7737 53.0871 49.1565C52.9708 49.2967 52.8528 49.4361 52.7348 49.5737C52.1268 50.2793 51.4871 50.9553 50.8158 51.6018C50.6596 51.7527 50.5016 51.9018 50.3419 52.0491C50.3046 52.0837 50.2673 52.1175 50.23 52.1521C49.4481 52.8665 48.6289 53.5391 47.7759 54.1669C47.2034 54.5902 46.6158 54.9923 46.0132 55.3731C45.8809 55.4574 45.7478 55.5402 45.6137 55.6216C45.3812 55.7636 45.1466 55.9024 44.9099 56.0379C44.601 56.2154 44.2883 56.3873 43.9717 56.5535C43.8439 56.6219 43.7152 56.6876 43.5865 56.7533C43.3984 56.85 43.2093 56.9432 43.0185 57.0346C42.9856 57.0506 42.9528 57.0666 42.92 57.0817C42.7957 57.142 42.6697 57.2006 42.5436 57.2592C40.9022 58.0162 39.1951 58.622 37.4436 59.0689C37.4339 59.0716 37.425 59.0734 37.4152 59.076C37.3007 59.1053 37.1853 59.1337 37.07 59.1612C36.9839 59.1825 36.8969 59.203 36.8099 59.2225C36.7992 59.226 36.7882 59.2287 36.7771 59.2305C36.5987 59.2722 36.4203 59.3121 36.2401 59.3485C36.1389 59.3698 36.0377 59.3911 35.9365 59.4115C35.8753 59.4249 35.8132 59.4364 35.7519 59.4479C35.6747 59.463 35.5984 59.4772 35.5211 59.4923C35.4785 59.5012 35.4359 59.5083 35.3924 59.5154C35.2948 59.5331 35.1972 59.5509 35.1004 59.5678C34.9353 59.5962 34.7685 59.6237 34.6025 59.6485C34.4818 59.6672 34.362 59.6849 34.2413 59.7018C34.0993 59.7222 33.9572 59.7408 33.8143 59.7586C33.7753 59.7648 33.7362 59.7692 33.6972 59.7737C33.6466 59.7799 33.596 59.7861 33.5454 59.7923C33.4433 59.8047 33.3413 59.8163 33.2383 59.8269C33.1851 59.8331 33.1327 59.8385 33.0794 59.8438C32.9782 59.8544 32.8771 59.8642 32.7759 59.8731C32.6454 59.8855 32.5149 59.8962 32.3836 59.9068C32.2238 59.9192 32.0649 59.9308 31.9043 59.9405C31.8013 59.9467 31.6984 59.953 31.5945 59.9583C31.33 59.9725 31.0655 59.9823 30.7993 59.9893C30.667 59.9929 30.5339 59.9956 30.4007 59.9973H30.3981C30.2658 59.9991 30.1327 60 29.9995 60C28.6503 60.0006 27.3026 59.9104 25.9655 59.7302C24.9848 59.5988 24.0197 59.4207 23.0703 59.1959C23.0321 59.187 22.9939 59.1781 22.9567 59.1683C22.8608 59.1462 22.7658 59.1222 22.6709 59.0982C22.5865 59.0769 22.5031 59.0547 22.4188 59.0325C20.2457 58.467 18.1435 57.6575 16.1525 56.6192C16.1427 56.6139 16.1321 56.6086 16.1223 56.6033C16.0646 56.5731 16.0078 56.5438 15.951 56.5127C15.8259 56.447 15.7013 56.3802 15.5774 56.3121C14.8717 55.9243 14.1842 55.5095 13.5146 55.0677C13.3424 54.955 13.172 54.8405 13.0034 54.7243C12.9493 54.687 12.896 54.6497 12.8427 54.6124C12.7868 54.5734 12.7309 54.5343 12.6759 54.4953C12.5294 54.3914 12.3839 54.2864 12.2392 54.1802C11.6401 53.7399 11.0587 53.2781 10.4951 52.7947C8.49741 51.0838 6.73213 49.1189 5.24422 46.95C4.72499 46.1938 4.24038 45.4133 3.79038 44.6086C1.29657 40.1441 -0.0087447 35.1138 -0.000448985 30C-0.000448985 13.4317 13.4312 0 29.9995 0C46.5679 0 59.9995 13.4317 59.9995 30Z" fill="url(#paint0_linear)"/>
<path opacity="0.2" d="M34.824 59.1684C34.9198 59.1462 35.0148 59.1222 35.1098 59.0983C35.1941 59.077 35.2775 59.0548 35.3618 59.0326C35.3663 58.856 35.3725 58.6616 35.3787 58.4512C35.4311 56.8039 35.5544 54.1518 35.8456 50.9566C35.8615 50.7853 35.8775 50.6128 35.8935 50.4391C35.9974 49.3563 36.1189 48.2175 36.2645 47.037C36.2689 46.998 36.2743 46.9598 36.2787 46.9208C36.3968 45.964 36.5308 44.9814 36.6817 43.9802C36.7873 43.2799 36.9015 42.5719 37.0243 41.8563C37.0331 41.8066 37.042 41.756 37.0509 41.7063C37.0864 41.4995 37.1228 41.2935 37.1601 41.0858C37.2639 40.508 37.3749 39.9267 37.4911 39.3453C37.9003 37.3003 38.3876 35.2429 38.9689 33.2415C39.5595 31.1658 40.2868 29.1314 41.1462 27.1518C41.8127 25.614 42.6065 24.1346 43.5195 22.729C43.5329 22.7086 43.5462 22.6891 43.5595 22.6687C44.7266 20.9104 46.0607 19.4184 47.5837 18.3027L47.2678 17.8713C45.8086 18.9409 44.4701 20.3639 43.2524 22.1406C43.2462 22.1494 43.2408 22.1574 43.2346 22.1663C42.3189 23.5242 41.5196 24.9572 40.8453 26.4497C39.9423 28.4462 39.1807 30.5037 38.566 32.6068C37.9837 34.5613 37.4615 36.6787 36.9994 38.9592C36.837 39.7625 36.682 40.5855 36.5343 41.4284C36.5095 41.5722 36.4846 41.716 36.4598 41.8607C36.4598 41.8625 36.4589 41.8651 36.4589 41.8669C36.4207 42.0888 36.3843 42.3107 36.3471 42.5352C36.2547 43.1006 36.1678 43.6616 36.0861 44.2181C35.9601 45.0755 35.8462 45.9181 35.7444 46.7459C35.7107 47.0193 35.6781 47.2906 35.6468 47.5598C35.6024 47.9397 35.5604 48.3145 35.5207 48.6844C35.4648 49.1992 35.4136 49.703 35.3672 50.1959L35.3539 50.3317C35.3468 50.4098 35.3397 50.4879 35.3326 50.5651C34.9722 54.4518 34.8595 57.5912 34.824 59.1684Z" fill="black"/>
<path opacity="0.2" d="M41.6281 56.6192C41.6378 56.6139 41.6485 56.6086 41.6582 56.6032C41.8411 56.5083 42.0221 56.4115 42.2032 56.3121C42.2627 55.6038 42.3425 54.8254 42.4473 54.0071C42.4695 53.8385 42.4917 53.6672 42.5165 53.495C42.5289 53.4027 42.5423 53.3095 42.5556 53.2154C42.6603 52.4947 42.7846 51.7509 42.9337 51.0036C43.5399 47.9538 44.5464 44.8367 46.2177 42.9124C46.3073 42.8086 46.3988 42.7092 46.4937 42.6124C46.7291 42.3679 46.9847 42.1437 47.2579 41.9423L46.942 41.5118C46.5606 41.7939 46.2096 42.1149 45.8946 42.4695C45.7837 42.5929 45.6754 42.7213 45.5698 42.8547C44.0316 44.7905 43.0712 47.6565 42.473 50.4941C42.3168 51.2343 42.1855 51.9737 42.0736 52.6935C42.0452 52.8817 42.018 53.068 41.992 53.2527C41.8189 54.4722 41.7044 55.6243 41.6281 56.6192Z" fill="black"/>
<path opacity="0.2" d="M50.5685 18.2903C52.0435 18.2903 53.2391 17.0946 53.2391 15.6197C53.2391 14.1448 52.0435 12.9491 50.5685 12.9491C49.0936 12.9491 47.8979 14.1448 47.8979 15.6197C47.8979 17.0946 49.0936 18.2903 50.5685 18.2903Z" fill="black"/>
<path opacity="0.2" d="M49.7084 41.2793C51.1834 41.2793 52.379 40.0836 52.379 38.6087C52.379 37.1338 51.1834 35.9381 49.7084 35.9381C48.2335 35.9381 47.0378 37.1338 47.0378 38.6087C47.0378 40.0836 48.2335 41.2793 49.7084 41.2793Z" fill="black"/>
<path opacity="0.2" d="M39.9662 20.1054C40.5325 23.3005 39.2824 26.1935 39.2824 26.1935C39.2824 26.1935 37.114 23.9064 36.5477 20.7114C35.9814 17.5163 37.2316 14.6233 37.2316 14.6233C37.2316 14.6233 39.3999 16.9104 39.9662 20.1054Z" fill="black"/>
<path opacity="0.2" d="M48.8416 27.6898C45.7941 28.8041 42.7318 28.089 42.7318 28.089C42.7318 28.089 44.6105 25.5671 47.6579 24.4528C50.7054 23.3384 53.7677 24.0536 53.7677 24.0536C53.7677 24.0536 51.8891 26.5754 48.8416 27.6898Z" fill="black"/>
<path opacity="0.2" d="M49.3584 48.0473C47.2223 48.8283 45.0729 48.3188 45.0729 48.3188C45.0729 48.3188 46.3866 46.5429 48.5227 45.7619C50.6587 44.9808 52.8082 45.4903 52.8082 45.4903C52.8082 45.4903 51.4944 47.2662 49.3584 48.0473Z" fill="black"/>
<path d="M39.0497 47.5979L39.158 47.6538C39.1473 47.7692 39.1216 47.8402 39.0497 47.5979Z" fill="#2F2E41"/>
<path d="M39.1932 47.6352C39.1941 47.6476 39.1959 47.6609 39.1968 47.6734L39.158 47.6538C39.1589 47.6423 39.1598 47.6299 39.1616 47.6174C39.1706 47.4621 39.1598 47.2784 39.1932 47.6352Z" fill="#2F2E41"/>
<path d="M27.6642 43.389C35.7137 43.389 42.239 36.8637 42.239 28.8143C42.239 20.7648 35.7137 14.2395 27.6642 14.2395C19.6148 14.2395 13.0895 20.7648 13.0895 28.8143C13.0895 36.8637 19.6148 43.389 27.6642 43.389Z" fill="#2F2E41"/>
<path d="M28.864 42.795C33.7387 42.795 37.6905 38.8433 37.6905 33.9686C37.6905 29.0939 33.7387 25.1422 28.864 25.1422C23.9893 25.1422 20.0376 29.0939 20.0376 33.9686C20.0376 38.8433 23.9893 42.795 28.864 42.795Z" fill="#D0CDE1"/>
<path d="M49.018 50.8855L49.0074 50.8882L46.9544 51.3808L42.6799 52.4068L42.0967 52.5471L35.5961 54.1065L35.0441 54.2397L19.2728 58.0243C18.2066 57.6165 17.1649 57.1473 16.1529 56.6193C16.1432 56.6139 16.1325 56.6086 16.1228 56.6033C16.0651 56.5731 16.0083 56.5438 15.9515 56.5128C15.8263 56.4471 15.7018 56.3802 15.5778 56.3122C14.8722 55.9243 14.1846 55.5095 13.5151 55.0678C13.3429 54.9551 13.1725 54.8406 13.0038 54.7243C12.9497 54.687 12.8964 54.6497 12.8432 54.6125C12.7873 54.5734 12.7313 54.5343 12.6763 54.4953C12.5299 54.3914 12.3843 54.2864 12.2396 54.1802C13.7716 51.3959 17.4195 49.5453 21.0674 48.5326C23.8207 47.7675 24.426 45.253 24.3736 43.0154C24.3603 42.505 24.3171 41.9959 24.2441 41.4906C24.1328 40.6863 23.9559 39.8925 23.7151 39.1172L32.542 39.4119L33.4526 41.5101C33.4277 41.7406 33.4197 41.9725 33.4287 42.2042C33.4979 43.9252 34.5603 45.0382 35.8713 45.7562C36.0417 45.8494 36.2165 45.9364 36.3941 46.0172C38.5438 46.9944 41.0742 47.061 41.0742 47.061C41.8448 46.9758 42.6231 46.9904 43.3899 47.1045C43.5763 47.1329 43.7574 47.1669 43.9331 47.2065C44.9592 47.4359 45.9285 47.8696 46.7831 48.482C47.1095 48.7142 47.4184 48.9702 47.7071 49.248C48.2202 49.7282 48.6617 50.2797 49.018 50.8855Z" fill="#D0CDE1"/>
<path d="M50.3423 52.0491C50.305 52.0837 50.2677 52.1175 50.2304 52.1521C49.4485 52.8666 48.6293 53.5391 47.7763 54.1669C47.2038 54.5903 46.6162 54.9923 46.0136 55.3731C45.8813 55.4574 45.7482 55.5403 45.6141 55.6216C45.3816 55.7636 45.147 55.9024 44.9103 56.0379C44.6014 56.2154 44.2887 56.3873 43.9721 56.5536C43.8443 56.6219 43.7156 56.6876 43.5869 56.7533C43.3988 56.85 43.2097 56.9432 43.0189 57.0346C42.986 57.0506 42.9532 57.0666 42.9204 57.0817L42.5449 56.7701L46.9544 51.3808L47.8411 50.2971C47.8411 50.2971 48.1952 50.2971 49.0073 50.8882C49.4562 51.2223 49.8804 51.5883 50.2766 51.9834C50.2979 52.0056 50.3201 52.0269 50.3423 52.0491Z" fill="#D0CDE1"/>
<path d="M50.2802 51.9887C50.2683 52.0445 50.2517 52.0991 50.2305 52.152C49.4486 52.8665 48.6294 53.5391 47.7764 54.1668C47.0362 54.4336 46.2684 54.6161 45.4873 54.7109C45.4873 54.7109 45.5539 55.0446 45.6143 55.6216C45.3817 55.7636 45.1471 55.9023 44.9104 56.0378C44.6015 56.2154 44.2888 56.3873 43.9722 56.5535C43.8444 56.6219 43.7157 56.6875 43.587 56.7532C43.3989 56.85 43.2098 56.9432 43.019 57.0346C42.9861 57.0506 42.9533 57.0665 42.9205 57.0816C42.7962 57.142 42.6702 57.2006 42.5441 57.2591C40.9027 58.0162 39.1956 58.622 37.4441 59.0689C37.4344 59.0716 37.4255 59.0734 37.4157 59.076C37.3012 59.1053 37.1859 59.1337 37.0705 59.1612C36.9844 59.1825 36.8974 59.2029 36.8104 59.2225C36.7997 59.226 36.7887 59.2286 36.7776 59.2305C36.5992 59.2722 36.4208 59.3121 36.2406 59.3485C36.1394 59.3698 36.0382 59.3911 35.937 59.4115C35.8758 59.4248 35.8137 59.4364 35.7524 59.4479C35.6752 59.463 35.5989 59.4772 35.5217 59.4923C35.479 59.5012 35.4364 59.5083 35.393 59.5154C35.2953 59.5331 35.1977 59.5509 35.1009 59.5677C34.9359 59.5961 34.769 59.6236 34.603 59.6485C34.4823 59.6671 34.3625 59.6849 34.2418 59.7018C34.0998 59.7222 33.9577 59.7408 33.8148 59.7586C33.7758 59.7648 33.7367 59.7692 33.6977 59.7737C33.6471 59.7799 33.5965 59.7861 33.5459 59.7923C33.4438 59.8047 33.3418 59.8163 33.2388 59.8269C33.1856 59.8331 33.1332 59.8384 33.0799 59.8438C32.9788 59.8544 32.8776 59.8642 32.7764 59.8731C32.6459 59.8855 32.5154 59.8961 32.3841 59.9068C32.2243 59.9192 32.0654 59.9308 31.9048 59.9405C31.8018 59.9467 31.6989 59.9529 31.595 59.9583C31.3305 59.9725 31.066 59.9822 30.7998 59.9893C30.6675 59.9929 30.5344 59.9955 30.4012 59.9973H30.3986C30.2663 59.9991 30.1332 60 30.0001 60C28.6509 60.0005 27.3031 59.9104 25.966 59.7302C24.9853 59.5988 24.0202 59.4207 23.0708 59.1958C23.0326 59.187 22.9944 59.1781 22.9572 59.1683C22.8613 59.1461 22.7663 59.1222 22.6714 59.0982C22.587 59.0769 22.5036 59.0547 22.4193 59.0325C20.2462 58.467 18.1441 57.6574 16.153 56.6192C16.1433 56.6139 16.1326 56.6086 16.1228 56.6032C16.0651 56.5731 16.0083 56.5438 15.9515 56.5127C20.8234 55.3775 28.5222 53.5872 35.203 52.0535C35.3903 52.0109 35.5764 51.9683 35.7613 51.9257C38.2287 51.3594 40.54 50.8322 42.4953 50.3911C42.6977 50.3458 42.8959 50.3014 43.09 50.258C45.1909 49.7858 46.8222 49.4272 47.7072 49.2479C47.9457 49.1934 48.1868 49.151 48.4296 49.121L50.2767 51.9834L50.2802 51.9887Z" fill="#2F2E41"/>
<path d="M14.3298 22.6122C16.7275 22.6122 18.6712 20.6685 18.6712 18.2708C18.6712 15.8731 16.7275 13.9294 14.3298 13.9294C11.9321 13.9294 9.9884 15.8731 9.9884 18.2708C9.9884 20.6685 11.9321 22.6122 14.3298 22.6122Z" fill="#2F2E41"/>
<path d="M40.9985 21.3719C43.3962 21.3719 45.3399 19.4281 45.3399 17.0304C45.3399 14.6327 43.3962 12.689 40.9985 12.689C38.6008 12.689 36.6571 14.6327 36.6571 17.0304C36.6571 19.4281 38.6008 21.3719 40.9985 21.3719Z" fill="#2F2E41"/>
<path d="M36.347 15.1699C36.3471 14.0991 36.743 13.0661 37.4585 12.2695C38.174 11.4729 39.1586 10.9688 40.2232 10.8541C39.617 10.7879 39.0035 10.8501 38.4229 11.0368C37.8423 11.2235 37.3075 11.5305 36.8534 11.9376C36.3994 12.3448 36.0362 12.8431 35.7875 13.4C35.5389 13.9569 35.4104 14.56 35.4104 15.1699C35.4104 15.7798 35.5389 16.3828 35.7875 16.9397C36.0362 17.4966 36.3994 17.9949 36.8534 18.4021C37.3075 18.8093 37.8423 19.1162 38.4229 19.3029C39.0035 19.4896 39.617 19.5518 40.2232 19.4856C39.1586 19.3709 38.174 18.8668 37.4585 18.0702C36.743 17.2736 36.3471 16.2406 36.347 15.1699Z" fill="#2F2E41"/>
<path d="M9.47898 21.7826C8.72969 21.0176 8.28953 20.0028 8.24308 18.933C8.19662 17.8633 8.54715 16.8141 9.2273 15.9871C8.74789 16.3641 8.3533 16.8379 8.06923 17.3776C7.78517 17.9173 7.61801 18.5108 7.57864 19.1194C7.53927 19.728 7.62857 20.3381 7.84074 20.9099C8.0529 21.4817 8.38317 22.0024 8.81001 22.438C9.23685 22.8736 9.75069 23.2145 10.318 23.4382C10.8854 23.662 11.4935 23.7638 12.1028 23.7368C12.7121 23.7099 13.3089 23.5548 13.8543 23.2818C14.3997 23.0088 14.8814 22.624 15.2681 22.1524C14.4274 22.8155 13.3713 23.1446 12.3027 23.0763C11.2341 23.008 10.2285 22.5473 9.47898 21.7826Z" fill="#2F2E41"/>
<path d="M27.6641 21.9921C22.5262 21.9921 18.3611 24.4217 18.3611 27.4188C18.3611 28.7599 19.1983 29.9855 20.5803 30.9323L22.3712 29.6347L21.8842 31.6676C22.0863 31.7613 22.2926 31.8519 22.5078 31.9357L25.1833 28.8143V32.6489C26.0037 32.7804 26.8333 32.8461 27.6641 32.8456C32.802 32.8456 36.9672 30.416 36.9672 27.4188C36.9672 24.4217 32.802 21.9921 27.6641 21.9921Z" fill="#2F2E41"/>
<path d="M36.6571 17.0304C36.6571 17.0304 35.9828 20.1314 40.1962 21.3718L36.6571 17.0304Z" fill="#2F2E41"/>
<path d="M18.361 17.5948C18.361 17.5948 19.9115 21.0618 15.26 22.6123L18.361 17.5948Z" fill="#2F2E41"/>
<path d="M20.6606 37.4338C21.0518 37.3243 21.1558 36.4744 20.893 35.5356C20.6302 34.5968 20.1 33.9244 19.7088 34.0339C19.3176 34.1435 19.2136 34.9933 19.4764 35.9322C19.7392 36.871 20.2694 37.5433 20.6606 37.4338Z" fill="#D0CDE1"/>
<path d="M38.5716 34.308C38.6315 33.3349 38.3514 32.5258 37.9459 32.5009C37.5405 32.4759 37.1632 33.2445 37.1033 34.2176C37.0433 35.1907 37.3234 35.9998 37.7289 36.0248C38.1344 36.0497 38.5116 35.2811 38.5716 34.308Z" fill="#D0CDE1"/>
</g>
<defs>
<linearGradient id="paint0_linear" x1="-0.000488281" y1="30" x2="59.9996" y2="30" gradientUnits="userSpaceOnUse">
<stop stop-color="#BE5DEB"/>
<stop offset="1" stop-color="#833EB5"/>
</linearGradient>
<clipPath id="clip0">
<rect width="800" height="800" fill="white"/>
</clipPath>
</defs>
</svg>
