<svg width="338" height="178" viewBox="0 0 338 178" fill="none" xmlns="http://www.w3.org/2000/svg">
<g filter="url(#filter0_d)">
<g clip-path="url(#clip0)">
<rect x="2" y="2" width="330" height="170" rx="20" fill="#BE5DEB"/>
<path d="M318 141.5L333 126.5L338 146.5L301 165L293 164.5L318 141.5Z" fill="#B151DD"/>
<path d="M78 31L113.5 22L81.5 19.5L23.5 26.5L-1.5 41.5V61L14 53L29.5 46.5L46 40.5L78 31Z" fill="#B151DD"/>
<path d="M80.5 23.5C31.7 23.9 1.83333 43.6667 -7 53.5V-4.5L322.5 -8C321.667 -7.16667 318.8 -4.2 314 1C308 7.5 238 12.5 221 10C204 7.5 187.5 14.5 175 18C162.5 21.5 141.5 23 80.5 23.5Z" fill="#A63AD8"/>
<path d="M246 170C294.8 169.6 324.667 149.833 333.5 140V198L4 201.5C4.83334 200.667 7.70001 197.7 12.5 192.5C18.5 186 88.5 181 105.5 183.5C122.5 186 139 179 151.5 175.5C164 172 185 170.5 246 170Z" fill="#A63AD8"/>
<path d="M-3 62.5C23.5 43.3333 129 4.2 339 1" stroke="#A63AD8"/>
<path d="M335.5 123C319.167 142.833 278.9 182.5 248.5 182.5" stroke="#A63AD8"/>
<path d="M255.063 6.98541C255.063 6.98541 246.99 4.10231 241.801 15.6347C236.611 27.1672 228.538 39.8528 228.538 39.8528L233.151 41.0061C233.151 41.0061 234.304 32.9334 237.188 31.7801L236.034 42.1593C236.034 42.1593 270.632 54.2684 286.201 41.0061L285.625 36.9697C285.625 36.9697 287.931 37.5464 287.931 41.0061L289.661 39.2762C289.661 39.2762 287.931 35.8165 282.742 31.2035C279.335 28.1758 278.165 22.4155 277.763 18.8141C277.461 15.8069 276.258 12.9609 274.311 10.6495C270.862 6.65261 264.578 2.40448 255.063 6.98541Z" fill="#2F2E41"/>
<path d="M304.06 72.243C304.06 72.243 319.252 85.2002 321.486 92.7957C323.72 100.391 312.996 101.285 312.996 101.285L289.762 103.519C289.762 103.519 289.316 114.242 285.294 115.582C281.273 116.923 284.478 97.8501 284.478 97.8501L307.188 91.4553L296.911 80.7322L304.06 72.243Z" fill="#FBBEBE"/>
<path d="M233.018 85.647L231.23 109.327L221.401 149.539C221.401 149.539 212.465 167.858 220.06 168.305C227.656 168.751 227.209 150.879 227.209 150.879L241.507 112.902L242.847 86.9874L233.018 85.647Z" fill="#FBBEBE"/>
<path d="M258.039 44.0948C266.182 44.0948 272.784 37.4935 272.784 29.3505C272.784 21.2074 266.182 14.6061 258.039 14.6061C249.896 14.6061 243.294 21.2074 243.294 29.3505C243.294 37.4935 249.896 44.0948 258.039 44.0948Z" fill="#FBBEBE"/>
<path d="M251.337 36.4993C251.337 36.4993 256.699 55.7116 248.209 60.6263C239.72 65.5411 269.656 69.1155 277.698 54.3712C277.698 54.3712 263.401 49.4564 267.422 36.4993H251.337Z" fill="#FBBEBE"/>
<path d="M241.06 62.8602L238.379 61.9666C238.379 61.9666 233.018 64.2006 233.018 68.2218C233.018 72.243 232.124 88.3277 232.124 88.3277L244.188 89.6681L241.06 62.8602Z" fill="#6C63FF"/>
<path d="M293.57 151.952C277.076 154.396 253.036 156.369 228.104 152.94C228.102 152.693 228.102 152.453 228.102 152.219C228.102 150.825 228.156 149.446 228.262 148.084C229.539 131.304 238.184 117.316 241.529 112.468C241.697 112.221 241.853 112 241.993 111.803C242.533 111.045 242.847 110.645 242.847 110.645C242.847 110.645 268.762 110.222 282.166 115.583C282.812 115.854 283.404 116.241 283.911 116.724C288.909 121.336 291.845 136.308 293.57 151.952Z" fill="#2F2E41"/>
<path d="M283.954 56.6051C283.954 56.6051 289.762 53.4775 295.571 60.1795L307.188 73.5834L298.252 83.413L281.273 73.1366L283.954 56.6051Z" fill="#6C63FF"/>
<path d="M275.465 53.4776C275.465 53.4776 269.212 63.3637 250.445 58.644L239.795 61.5769L238.38 61.9667C238.38 61.9667 239.72 88.7746 243.295 93.6894C246.869 98.6041 245.975 101.285 245.082 101.732C244.188 102.179 241.954 101.285 243.295 103.519C244.635 105.753 246.422 104.413 244.635 105.753C242.848 107.093 241.954 112.008 241.954 112.008L283.954 117.37C283.954 117.37 282.614 99.9445 286.188 91.0086C289.762 82.0726 290.656 78.4983 290.656 78.4983L287.975 56.1584L275.465 53.4776Z" fill="#6C63FF"/>
<path d="M32.9517 62C32.4901 59.304 30.1634 55.8324 25.7131 55.8324C21.0597 55.8324 17.8835 59.7472 17.8835 65.5455C17.8835 71.3438 21.0597 75.2585 25.7131 75.2585C30.1634 75.2585 32.4901 71.75 32.9517 69.0909H32.3239C31.8622 71.6392 29.5724 74.6676 25.7131 74.6676C21.8352 74.6676 18.4744 71.4915 18.4744 65.5455C18.4744 59.6733 21.8352 56.4233 25.7131 56.4233C29.5724 56.4233 31.8622 59.4886 32.3239 62H32.9517ZM37.8913 65.4716C37.8913 62.9972 39.701 61.2244 42.2124 61.2244C44.7237 61.2244 46.4595 62.9602 46.4595 65.4716V75H47.0504V65.4716C47.0504 62.6278 45.0561 60.6335 42.2124 60.6335C40.255 60.6335 38.63 61.5938 37.9652 63.071H37.8913V56.0909H37.3004V75H37.8913V65.4716ZM57.396 75.2955C60.1566 75.2955 61.68 73.5597 62.3079 72.4886L61.8278 72.1562C61.3107 73.0057 60.0089 74.7045 57.396 74.7045C53.832 74.7045 51.8285 71.6115 51.8192 67.9091H62.8988V67.3182C62.8988 63.6527 60.3967 60.5966 57.1005 60.5966C53.7489 60.5966 51.2283 63.7727 51.2283 67.946C51.2283 72.1193 53.6751 75.2955 57.396 75.2955ZM51.8377 67.3182C52.087 63.7912 54.3121 61.1875 57.1005 61.1875C59.9719 61.1875 62.3079 63.9112 62.3079 67.3182H51.8377ZM72.1802 75.2955C74.7654 75.2955 76.8613 73.5412 77.2768 70.8636H76.649C76.3074 73.1811 74.4423 74.7045 72.1802 74.7045C69.0225 74.7045 66.8251 71.7223 66.8251 67.946C66.8251 64.0682 69.1241 61.1875 72.1802 61.1875C74.4146 61.1875 76.2335 62.7294 76.612 64.9545H77.2399C76.8059 62.3693 74.7193 60.5966 72.1802 60.5966C68.7179 60.5966 66.2342 63.7912 66.2342 67.946C66.2342 72.1378 68.7363 75.2955 72.1802 75.2955ZM85.0002 75.2955C87.1422 75.2955 88.878 74.0398 89.7644 72.1193H89.8382V75H90.4292V64.8068C90.4292 62.4062 88.6934 60.5966 85.8127 60.5966C83.5968 60.5966 81.7502 61.7045 81.0854 63.4773L81.6394 63.6989C82.2303 62.1108 83.8184 61.1875 85.8127 61.1875C88.2502 61.1875 89.8382 62.6278 89.8382 64.8068V65.6562C89.8382 66.7642 87.9917 66.9858 86.0343 67.2074C81.6763 67.7244 80.6792 69.2386 80.6792 71.1591C80.6792 73.8182 82.6735 75.2955 85.0002 75.2955ZM85.0002 74.7045C82.8951 74.7045 81.2701 73.3011 81.2701 71.1591C81.2701 69.3494 82.4519 68.2045 86.2559 67.7614C87.8809 67.5767 89.1365 67.3182 89.8382 66.8011V68.9432C89.8382 72.3778 87.6962 74.7045 85.0002 74.7045ZM95.5211 75H96.112V65.4716C96.112 62.9972 97.9217 61.2244 100.433 61.2244H100.729V60.6335H100.433C98.4757 60.6335 96.8507 61.5938 96.1859 63.071H96.112V60.8182H95.5211V75Z" fill="white"/>
<path d="M27.0625 91H27.5625C27.4063 88.5312 25.5547 86.75 22.8125 86.75C20.0781 86.75 18.0625 88.5156 18.0625 90.875C18.0625 92.7266 19.2969 94.0234 21.8125 94.8125L23.625 95.375C26.2109 96.1797 27.2813 97.2187 27.2813 98.9375C27.2813 101.203 25.4375 102.75 22.6875 102.75C20.0469 102.75 18.3438 101.32 18.1875 99.25H17.6875C17.8438 101.602 19.7656 103.25 22.6875 103.25C25.7188 103.25 27.7813 101.445 27.7813 98.9375C27.7813 96.9687 26.5156 95.7266 23.75 94.875L21.9375 94.3125C19.6406 93.6094 18.5625 92.5 18.5625 90.875C18.5625 88.7734 20.3672 87.25 22.8125 87.25C25.2891 87.25 26.9063 88.8125 27.0625 91ZM36.0957 103.25C38.4316 103.25 39.7207 101.781 40.252 100.875L39.8457 100.594C39.4082 101.312 38.3066 102.75 36.0957 102.75C33.0801 102.75 31.3848 100.133 31.377 97H40.752V96.5C40.752 93.3984 38.6348 90.8125 35.8457 90.8125C33.0098 90.8125 30.877 93.5 30.877 97.0313C30.877 100.562 32.9473 103.25 36.0957 103.25ZM31.3926 96.5C31.6035 93.5156 33.4863 91.3125 35.8457 91.3125C38.2754 91.3125 40.252 93.6172 40.252 96.5H31.3926ZM44.793 94.9375C44.793 92.8437 46.3242 91.3437 48.4492 91.3437C50.5742 91.3437 52.043 92.8125 52.043 94.9375V103H52.543V94.9375C52.543 92.5312 50.8555 90.8438 48.4492 90.8438C46.793 90.8438 45.418 91.6562 44.8555 92.9062H44.793V91H44.293V103H44.793V94.9375ZM57.2969 94.9375C57.2969 92.8437 58.8281 91.3437 60.9531 91.3437C63.0781 91.3437 64.5469 92.8125 64.5469 94.9375V103H65.0469V94.9375C65.0469 92.5312 63.3594 90.8438 60.9531 90.8438C59.2969 90.8438 57.9219 91.6562 57.3594 92.9062H57.2969V87H56.7969V103H57.2969V94.9375ZM72.3008 103.25C74.1133 103.25 75.582 102.187 76.332 100.562H76.3945V103H76.8945V94.375C76.8945 92.3438 75.4258 90.8125 72.9883 90.8125C71.1133 90.8125 69.5508 91.75 68.9883 93.25L69.457 93.4375C69.957 92.0937 71.3008 91.3125 72.9883 91.3125C75.0508 91.3125 76.3945 92.5312 76.3945 94.375V95.0938C76.3945 96.0312 74.832 96.2187 73.1758 96.4063C69.4883 96.8437 68.6445 98.125 68.6445 99.75C68.6445 102 70.332 103.25 72.3008 103.25ZM72.3008 102.75C70.5195 102.75 69.1445 101.562 69.1445 99.75C69.1445 98.2187 70.1445 97.25 73.3633 96.875C74.7383 96.7187 75.8008 96.5 76.3945 96.0625V97.875C76.3945 100.781 74.582 102.75 72.3008 102.75Z" fill="white"/>
<path d="M126.514 82.5183C121.124 79.808 119.081 72.9449 121.961 67.2192C124.84 61.4938 131.567 59.0408 136.957 61.7512C142.347 64.4616 144.389 71.3246 141.51 77.0501C138.631 82.7758 131.904 85.2287 126.514 82.5183ZM135.638 64.3748C131.694 62.392 126.736 64.2598 124.584 68.5386C122.433 72.8174 123.89 77.9118 127.833 79.8947C131.776 81.8776 136.735 80.0096 138.887 75.7308C141.038 71.452 139.581 66.3577 135.638 64.3748Z" fill="#B151DD"/>
<path d="M126.67 105.269L108.158 95.9594C106.526 95.1367 105.287 93.7003 104.714 91.9654C104.14 90.2305 104.277 88.3389 105.096 86.7054L114.228 68.5464C114.791 67.4294 115.775 66.5814 116.963 66.1885C118.15 65.7956 119.445 65.8898 120.564 66.4506L142.96 77.7132C144.077 78.2765 144.925 79.2599 145.318 80.4476C145.711 81.6354 145.617 82.9305 145.056 84.0488L135.924 102.208C135.102 103.839 133.665 105.078 131.93 105.652C130.196 106.226 128.304 106.088 126.67 105.269Z" fill="#A63AD8"/>
<path d="M130.175 84.2266C130.498 83.5856 130.644 82.87 130.598 82.1537C130.553 81.4373 130.317 80.746 129.916 80.151C129.514 79.556 128.961 79.0788 128.314 78.7685C127.667 78.4582 126.948 78.3261 126.233 78.3857C125.518 78.4453 124.831 78.6945 124.244 79.1077C123.657 79.5208 123.191 80.083 122.894 80.7362C122.596 81.3895 122.478 82.1102 122.552 82.8242C122.625 83.5382 122.888 84.2197 123.313 84.7984L120.474 90.4427L123.754 92.0919L126.592 86.4476C127.336 86.4436 128.064 86.2341 128.697 85.8421C129.329 85.4501 129.84 84.891 130.175 84.2266Z" fill="white"/>
<g clip-path="url(#clip1)">
<path d="M134.657 86.9394L130.151 84.4327M127.576 83.0003L130.151 84.4327L127.576 83.0003ZM139.948 89.883C139.576 90.5408 139.338 91.2657 139.247 92.0158C139.157 92.766 139.216 93.5266 139.42 94.254C139.625 94.9813 139.972 95.661 140.44 96.2538C140.909 96.8467 141.49 97.341 142.15 97.7084C142.81 98.0757 143.537 98.3088 144.287 98.3943C145.038 98.4797 145.798 98.4158 146.524 98.2062C147.25 97.9967 147.928 97.6456 148.517 97.1732C149.107 96.7007 149.597 96.1163 149.96 95.4536C150.668 94.1284 150.826 92.5783 150.402 91.1373C149.978 89.6962 149.004 88.4795 147.692 87.7492C146.379 87.0188 144.832 86.8333 143.384 87.2326C141.935 87.6318 140.702 88.5839 139.949 89.8837L139.948 89.883ZM139.948 89.883L134.657 86.9394L139.948 89.883ZM134.657 86.9394L132.508 90.8014L128.002 88.2947L130.151 84.4327L134.657 86.9394Z" stroke="#B151DD" stroke-width="2" stroke-linecap="round" stroke-linejoin="round"/>
</g>
</g>
</g>
<defs>
<filter id="filter0_d" x="0" y="0" width="338" height="178" filterUnits="userSpaceOnUse" color-interpolation-filters="sRGB">
<feFlood flood-opacity="0" result="BackgroundImageFix"/>
<feColorMatrix in="SourceAlpha" type="matrix" values="0 0 0 0 0 0 0 0 0 0 0 0 0 0 0 0 0 0 127 0" result="hardAlpha"/>
<feOffset dx="2" dy="2"/>
<feGaussianBlur stdDeviation="2"/>
<feComposite in2="hardAlpha" operator="out"/>
<feColorMatrix type="matrix" values="0 0 0 0 0 0 0 0 0 0 0 0 0 0 0 0 0 0 0.25 0"/>
<feBlend mode="normal" in2="BackgroundImageFix" result="effect1_dropShadow"/>
<feBlend mode="normal" in="SourceGraphic" in2="effect1_dropShadow" result="shape"/>
</filter>
<clipPath id="clip0">
<rect x="2" y="2" width="330" height="170" rx="20" fill="white"/>
</clipPath>
<clipPath id="clip1">
<rect width="25" height="25" fill="white" transform="matrix(-0.96169 0.274139 0.274139 0.96169 148.042 75)"/>
</clipPath>
</defs>
</svg>
