<svg width="411" height="308" viewBox="0 0 411 308" fill="none" xmlns="http://www.w3.org/2000/svg">
<path d="M58 197.5L54.5 153L52 135L53.5 109.5L79 103.5L84.5 111.5L93 119.5L104.5 135L112.5 148L115.5 166.5L113.5 170L116.5 173L150 165.5V185.5L144.5 190L147.5 200.5L151 212L160 227L177 241L202 260V265L120.5 267L90.5 262L76.5 250L58 197.5Z" fill="#64308D" stroke="black"/>
<path d="M88.5 64.5L132.5 65L133 72.5L130.5 76L130 90L124.5 92L118 100.5H100L86.5 114.5L80 106.5L88.5 64.5Z" fill="#F2DECB" stroke="black"/>
<path d="M173 159L151.5 169.5L150 186L156.5 184L203.5 159L204.5 155.5L187.5 153L186 147.5L185 145.5L173 159Z" fill="#F2DECB" stroke="black"/>
<path d="M283 242L298.5 229L304 239L329.5 250L353 261.5L353.5 265.5L291 264.5L283 242Z" fill="#F2DECB" stroke="black"/>
<path d="M322.5 195.5L370 193.5L372.5 175L376 132.5C379.667 119 387.1 91.9 387.5 91.5C387.9 91.1 389 87.6667 389.5 86H386L376 99.5L365.5 146.5L359 173L354.5 151.5L351.5 117L350.5 80L341 101V154.5L339 166.5L325 95L321.5 87L319 113L320.5 140.5L325 170.5L324 176L318.5 168L301 149.5L281.5 123L288 149.5L304 173L322.5 192.5V195.5Z" fill="#2C6739"/>
<path d="M375.5 194L323.5 196H323L321.5 199L321 237L324.5 248.5L348 257L352.5 262L353.5 266.5L357.5 268L368 266.5L377.5 252L380.5 218.5L375.5 194Z" fill="#593B2A"/>
<path d="M67 230L52 165.5L42 177L16.5 265.5V270L91 265.5L80.5 255L67 230Z" fill="#84C0B5"/>
<path d="M247 245.5C238.167 245.667 220.4 245.9 220 245.5C219.667 247.833 219 252.7 219 253.5C219 254.5 220 260.5 220.5 261.5C220.9 262.3 222.667 264.167 223.5 265L234.5 267L242 265L246.5 253.5L247 245.5Z" fill="#F2CAF9"/>
<path d="M212.5 108L200 106.5L186 147L187 154H206L223.5 112L212.5 108Z" fill="#F7911B"/>
<path fill-rule="evenodd" clip-rule="evenodd" d="M296.338 227.001C294.525 229.096 291.848 230.65 289.794 232.566C287.637 234.578 285.295 236.336 283.147 238.324C273.669 226.749 260.686 219.652 249.438 210.047C244.106 205.494 240.177 199.317 237.302 192.978C235.829 189.729 234.74 186.384 233.888 182.922C233.504 181.363 233.129 179.809 232.878 178.228C232.574 176.314 232.495 176.151 231.203 174.657C230.647 174.014 229.569 172.136 228.479 172.343C227.562 172.517 225.885 175.306 225.305 175.995C222.518 179.309 219.816 182.724 216.882 185.909C212.392 190.783 208.305 195.58 204.137 200.746C195.61 211.315 186.413 221.265 177.131 231.21C176.443 231.948 174.838 234.111 173.849 234.401C172.647 234.755 170.692 233.281 169.481 232.457C166.558 230.469 164.254 228.008 161.755 225.543C156.879 220.734 153.577 213.983 151.356 207.56C150.026 203.715 149.162 199.73 147.789 195.898C147.218 194.301 145.921 192.339 146.579 190.948C146.775 190.533 148.023 189.431 148.463 189.347C148.983 189.247 149.85 189.96 150.031 189.911C151.757 189.439 150.799 187.634 151.826 186.662C152.408 186.111 155.368 186.192 156.252 185.889C159.483 184.781 162.382 182.669 165.437 181.407C178.226 176.128 191.17 170.993 202.21 162.372C205.074 160.136 206.976 158.456 210.393 157.011C213.845 155.551 217.316 154.248 220.839 152.974C223.947 151.85 227.072 150.796 230.283 149.991C233.755 149.119 238.68 148.014 242.149 149.137C248.961 151.34 251.161 156.949 253.874 162.866C257.545 170.87 261.982 178.445 266.794 185.813C276.049 199.989 287.306 212.71 296.338 227.001Z" fill="#B659E1"/>
<path fill-rule="evenodd" clip-rule="evenodd" d="M91.1746 101.676C90.7997 101.486 87.8729 102.676 87.3817 102.858C85.4194 103.586 83.5711 104.794 81.7224 105.778C83.1392 107.501 84.5564 109.224 85.9729 110.947C87.3616 107.544 89.1465 104.735 91.1746 101.676ZM92.1407 122.853C91.6586 122.907 95.7285 132.679 96.2037 133.777C97.9332 137.767 99.749 141.719 101.501 145.7C103.199 149.558 105.353 153.106 107.523 156.71C109.379 159.792 111.287 164.575 114.087 166.858C112.319 159.022 112.552 150.013 107.482 143.434C102.227 136.613 97.0305 129.953 92.1407 122.853ZM296.338 227.348C288.484 214.922 278.653 203.929 270.464 191.725C265.878 184.891 261.415 177.97 257.555 170.696C254.747 165.404 253.002 157.855 248.666 153.809C246.755 152.027 244.713 150.283 242.149 149.484C238.64 148.392 233.808 149.475 230.283 150.338C223.714 151.948 217.296 154.447 211.074 157.072C204.762 159.734 199.378 164.516 193.675 168.358C187.558 172.48 180.936 175.482 174.082 178.111C168.115 180.4 162.806 183.685 156.87 185.989C155.687 186.448 153.273 186.381 152.281 186.98C151.212 187.624 151.633 189.527 150.335 190.23C149.749 190.546 149.554 189.398 149.105 189.417C148.555 189.44 148.054 190.084 147.524 190.493C145.366 192.156 146.688 193.265 147.542 195.553C150.326 203.009 151.823 210.595 155.732 217.634C158.946 223.42 163.546 228.605 168.962 232.435C169.786 233.018 172.472 235.277 173.439 235.127C174.309 234.992 176.081 232.679 176.682 232.051C179.409 229.202 181.902 226.136 184.628 223.282C188.84 218.871 192.894 214.341 196.982 209.87C201.727 204.68 205.926 198.798 210.2 193.252C212.166 190.701 214.697 188.623 216.882 186.257C219.82 183.076 222.518 179.656 225.305 176.343C226.148 175.34 227.561 172.776 228.872 172.806C229.79 172.827 231.409 174.988 231.889 175.665C233.675 178.181 233.667 182.726 234.555 185.867C236.721 193.527 240.628 201.008 245.986 206.919C251.313 212.797 258.138 216.977 264.44 221.702C271.266 226.821 277.733 232.059 283.147 238.671C285.295 236.684 287.637 234.925 289.794 232.914C291.848 230.998 294.525 229.443 296.338 227.348ZM195.246 262.504C196.773 262.519 197.634 261.734 199 261.169C194.949 256.689 191.228 252.846 186.102 249.564C180.783 246.157 175.481 242.781 170.315 239.148C159.903 231.826 153.969 224.866 149.62 212.672C148.5 209.532 147.75 206.238 146.929 203.01C146.487 201.272 145.608 193.139 144.116 192.437C143.231 192.02 136.577 196.694 135.522 197.276C133.057 198.638 130.583 199.695 128.034 200.761C122.556 203.052 116.908 204.801 111.099 206.26C104.134 208.01 99.3898 205.115 95.0751 199.645C90.18 193.439 86.1121 186.437 81.6365 179.92C79.6012 176.956 77.915 173.997 76.4119 170.728C75.4281 168.589 71.5265 162.817 72.8746 160.538C76.7209 163.464 78.1049 169.282 80.725 173.2C83.9905 178.082 87.6706 182.686 90.953 187.564C93.7132 191.666 96.5292 196.637 100.607 199.586C104.194 202.179 107.602 201.382 111.462 200.216C116.141 198.804 120.991 198.108 125.576 196.355C130.538 194.46 135.233 191.77 140.074 189.577C142.331 188.555 145.033 187.974 147.16 186.699C148.993 185.601 148.72 185.021 148.854 182.682C149.012 179.954 149.193 177.224 149.313 174.493C149.394 172.658 148.402 170.171 149.075 168.801C143.579 169.753 138.207 171.029 132.749 172.157C129.761 172.774 126.88 173.538 123.861 174.023C122.71 174.208 121.137 174.203 120.107 174.704C119.285 174.468 118.866 174.618 118.85 175.153C118.811 175.444 118.749 175.731 118.663 176.013C116.978 176.779 115.998 175.136 114.536 173.559C112.732 171.614 111.381 169.424 110.058 167.138C107.099 162.028 103.689 157.222 100.951 151.968C98.16 146.612 95.8934 140.878 93.5274 135.321C91.3568 130.223 89.9669 124.709 87.5683 119.732C86.4978 117.51 85.1412 115.673 83.557 113.796C82.2498 112.247 80.2385 108.906 78.2863 108.195C77.7701 108.007 76.4183 108.323 75.8319 108.281C74.6631 108.198 73.6216 107.769 72.4255 107.863C69.8359 108.065 67.0127 109.702 64.9432 111.14C66.2806 112.331 69.626 113.779 67.223 115.925C64.891 118.008 63.6031 114.271 62.7132 112.634C58.523 116.072 59.1286 120.813 58.6446 125.671C58.3917 128.207 57.7266 130.705 57.2976 133.203C56.9885 135.001 57.2053 136.86 57.117 138.696C56.8918 143.36 56.4226 147.825 56.4447 152.424C56.4696 157.34 56.8047 162.088 57.1984 166.968C57.8611 175.184 59.3795 183.404 60.6815 191.555C61.414 196.137 62.4166 200.588 63.3899 205.096C64.4945 210.212 66.5379 215.058 67.6838 220.161C68.8513 218.678 69.7295 218.671 71.618 218.867C73.0705 219.018 74.0462 218.673 73.9611 220.688C73.9062 221.994 72.7526 222.992 71.4763 223.22C69.8118 223.517 69.2463 222.687 68.3886 221.428C68.1879 223.813 69.7933 226.307 70.4283 228.637C71.0292 230.845 71.4273 233.009 72.4371 235.122C73.4225 237.183 74.2662 239.216 75.2632 241.258C75.7223 242.197 76.1518 243.151 76.6162 244.088C76.851 244.563 77.1275 245.216 77.4779 245.616C78.2999 246.553 78.1691 246.099 79.1312 246.633C81.2271 247.797 80.44 247.507 80.489 249.909C80.5367 252.279 81.7529 254.02 83.7031 255.352C87.8408 258.178 91.9219 258.964 96.6259 260.392C101.009 261.723 105.625 262.865 110.266 262.839C115.951 262.807 121.559 262.062 127.243 261.987C133.514 261.904 139.846 261.938 146.104 262.154C148.682 262.243 151.076 262.358 153.565 263.016C156.455 263.78 159.251 263.477 162.23 263.361C168.585 263.114 175.159 262.623 181.432 262.579C185.948 262.547 195.246 262.504 195.246 262.504ZM360.042 264.965C361.172 265.562 363.705 265.317 364.841 265.151C366.842 264.86 367.056 264.067 368.325 262.285C370.51 259.215 372.285 256.275 373.57 252.719C376.03 245.913 377.035 238.95 378.115 231.83C379.316 223.919 377.123 215.719 376.339 207.862C376.159 206.059 375.912 204.273 375.628 202.484C375.457 201.414 375.412 197.776 374.708 196.85C373.355 195.071 367.061 196.505 364.587 196.667C357.68 197.117 350.728 197.223 343.824 197.301C340.143 197.343 336.442 197.497 332.798 197.525C331.124 197.539 329.488 197.456 327.808 197.293C327.246 197.239 326.697 197.109 326.131 197.078C324.194 196.971 324.339 196.69 323.838 198.405C322.961 201.409 323.636 205.23 323.406 208.348C323.097 212.514 322.931 216.739 323.007 220.914C323.078 224.772 322.946 228.621 323.09 232.487C323.15 234.089 323.325 235.394 323.748 236.923C324.226 238.652 324.752 242.691 325.942 243.888C326.078 244.024 327.089 243.706 327.358 244.046C327.772 244.568 327.696 245.674 327.98 246.012C328.9 247.105 330.8 247.192 332.179 247.683C335.962 249.031 339.432 250.494 342.997 252.312C346.183 253.935 351.319 255.317 353.234 258.521C354.113 259.99 354.231 261.926 355.039 263.441C355.958 265.167 354.118 264.265 356.371 264.965C357.386 265.281 359.003 264.965 360.042 264.965ZM24.1964 245.443C23.9099 249.429 21.6626 253.226 20.8803 257.145C20.5143 258.98 19.8934 260.784 19.4631 262.608C19.0505 264.359 17.5598 266.431 17.7107 268.163C23.2127 266.204 28.7857 265.712 34.536 265.183C39.9862 264.683 45.7438 264.483 51.1482 264.481C56.6554 264.478 62.5439 263.941 68.2144 263.857C74.1446 263.77 80.1643 263.617 86.0086 263.002C82.9526 260.741 79.1287 258.617 76.8723 255.47C74.4191 252.05 73.1452 247.764 70.9866 244.155C66.6551 236.912 63.9013 227.924 61.6307 219.786C57.0467 203.359 51.9241 187.235 50.6895 170.195C48.3399 171.397 46.4747 176.062 45.2983 178.385C43.7968 181.351 43.0105 184.565 42.0344 187.717C40.0243 194.21 38.6332 200.942 36.172 207.372C31.468 219.665 28.4445 232.911 24.1964 245.443ZM322.859 149.7C323.876 157.047 326.01 164.489 326.092 171.925C326.11 173.561 325.832 175.377 326.173 176.99C326.538 178.712 327.723 180.235 328.407 181.871C329.494 184.469 332.244 189.794 329.591 191.996C329.538 189.907 327.624 187.254 326.661 185.427C325.208 182.675 323.3 180.158 321.725 177.474C318.429 171.856 314.736 166.358 310.488 161.405C306.351 156.581 301.583 152.301 297.195 147.707C295.877 146.327 285.303 133.041 284.882 133.227C288.162 145.866 293.738 156.862 301.369 167.444C305.11 172.631 309.6 176.045 314.154 180.44C317.947 184.1 325.095 188.013 323.783 194.01C329.712 193.44 335.602 192.53 341.584 192.53C340.6 184.965 339.847 177.519 338.09 170.078C336.096 161.628 334.746 152.926 333.059 144.401C331.337 135.699 328.416 127.274 326.599 118.587C324.859 110.27 323.364 101.967 322.089 93.5569C321.035 98.217 321.424 103.335 321.05 108.09C320.667 112.948 320.704 117.716 320.832 122.603C321.067 131.679 322.035 140.645 322.859 149.7ZM348.548 106.428C348.582 102.543 349.335 98.711 349.568 94.8354C349.639 93.6463 350.824 85.5336 349.719 85.1101C348.81 87.0905 348.598 89.6246 347.772 91.7024C346.947 93.7782 345.844 95.7558 345.053 97.846C343.338 102.374 342.746 107.498 342.562 112.312C342.144 123.201 341.928 134.066 342.66 144.955C342.974 149.622 343.215 154.297 343.129 158.974C343.035 164.12 342.246 168.586 343.204 173.69C344.152 178.744 344.748 183.777 345.063 188.905C345.285 192.503 345.374 192.249 348.811 191.996C351.291 191.813 353.797 192.008 356.281 191.895C355.12 177.868 354.93 163.812 353.074 149.839C352.127 142.711 352.102 135.479 350.926 128.377C350.342 124.849 349.361 121.392 348.798 117.86C348.193 114.068 348.491 110.25 348.548 106.428ZM97.2493 97.601C103.865 98.1737 110.902 100.15 117.683 98.845C116.565 98.3926 113.64 97.7686 114.957 95.9832C116.295 94.1676 118.551 96.4704 119.886 96.2326C120.709 96.0858 122.528 92.6477 123.036 91.9358C124.187 90.318 124.326 90.0361 126.397 89.6214C128.403 89.2204 128.857 89.6547 129.111 87.6619C129.403 85.3704 128.61 82.7941 128.688 80.4508C128.857 75.4061 130.486 70.9822 132.002 66.2359C125.561 67.6359 119.263 69.2962 112.678 70.1986C109.863 70.5844 105.483 71.4743 102.925 69.5621C102.26 69.0648 102.367 68.3935 101.822 67.8172C100.91 66.8503 99.2168 65.8501 97.9224 65.5746C89.9564 63.8802 89.1794 75.2269 93.1714 79.4727C94.1712 80.5366 95.5623 81.062 96.5862 82.0369C97.9529 83.3371 98.0648 84.7067 98.2643 86.6914C98.6384 90.4131 98.1303 94.1492 96.5413 97.5536L97.2493 97.601ZM193.917 151.168C196.268 151.614 198.723 151.512 201.08 151.893C201.918 152.028 204.429 152.5 205.166 152.01C206.29 151.263 206.69 148.523 207.222 147.247C208.157 145.002 209.48 143.044 210.372 140.759C214.017 131.423 217.415 122.05 221.823 113.034C220.133 112.595 218.836 112.578 217.134 112.351C215.36 112.115 213.752 111.067 212.06 110.617C210.452 110.189 208.767 110.298 207.173 109.8C206.296 109.526 205.542 108.917 204.677 108.704C203.297 108.365 201.687 108.167 200.867 109.072C200.026 110 199.731 112.545 199.274 113.743C198.055 116.937 196.639 120.019 195.619 123.286C194.698 126.232 193.823 129.147 193.012 132.121C192.155 135.26 190.467 137.847 189.439 140.845C188.657 143.128 187.919 145.461 187.802 147.894C187.688 150.269 187.342 150.42 189.719 150.8C190.918 150.991 192.788 151.703 193.917 151.168ZM348.64 262.303C349.252 262.588 349.83 262.551 350.371 262.189C345.061 259.948 339.896 256.84 334.357 255.303C329.16 253.861 324.109 252.138 319.103 250.362C315.035 248.919 311.378 247.796 307.7 245.256C305.468 243.715 303.485 241.982 301.951 239.729C300.243 237.221 299.863 233.652 298.013 231.393C295.517 234.132 292.584 236.207 289.63 238.384C288.608 239.137 286.157 240.779 285.808 241.944C285.366 243.415 286.548 244.822 287.132 246.31C288.629 250.122 289.36 253.931 290.172 257.894C290.498 259.482 291.201 261.869 292.506 262.535C293.695 263.14 297.138 262.7 298.618 262.588C306.336 262.003 313.917 261.405 321.682 261.937C330.469 262.539 339.876 262.955 348.64 262.303ZM364.056 191.675C365.458 191.68 366.829 191.504 368.226 191.504C367.42 187.741 369.306 182.87 369.974 179.114C370.722 174.911 371.292 170.565 371.791 166.329C372.842 157.406 373.319 148.592 373.333 139.604C373.345 130.906 374.93 122.958 377.15 114.598C379.533 105.618 383.436 97.5432 386.663 88.8835C383.123 90.7532 381.164 95.1281 379.304 98.4728C376.952 102.702 375.386 107.384 374.426 112.132C372.574 121.29 370.542 130.477 368.405 139.62C366.179 149.14 364.871 158.748 362.321 168.191C361.078 172.795 359.387 178.461 359.293 183.209C359.255 185.174 358.662 189.288 359.553 190.994C360.386 192.59 362.229 191.838 364.056 191.675ZM152.314 179.863C152.24 180.84 152.17 181.77 151.997 182.736C153.94 182.718 156.4 180.703 158.067 179.799C160.097 178.697 162.129 177.482 164.115 176.375C167.948 174.236 172.3 172.828 176.392 171.071C181.094 169.053 185.416 166.615 189.912 164.185C191.482 163.337 202.77 158.448 202.58 157.112C200.102 157.03 197.624 156.948 195.146 156.865C193.021 156.795 189.731 157.274 187.696 156.618C186.582 156.259 185.331 154.935 184.91 153.898C184.494 152.872 185.43 148.154 184.886 147.853C182.112 150.682 180.368 154.443 177.889 157.495C175.149 160.869 171.608 162.839 167.705 164.631C163.396 166.611 158.935 168.145 154.531 169.841C152.674 170.557 152.711 170.966 152.549 173.001C152.368 175.276 152.387 177.582 152.314 179.863ZM376.256 265.429C380.927 265.93 385.715 265.644 390.423 266.035C392.136 266.177 394.511 266.389 392.787 268.686C391.702 270.133 388.225 269.669 386.648 269.769C382.414 270.038 377.931 269.893 373.688 269.831C372.794 269.818 371.807 269.552 370.904 269.612C369.861 269.681 368.613 270.43 367.663 270.424C367.078 270.421 366.868 269.803 366.363 269.747C365.263 269.623 364.163 269.533 363.053 269.534C346.28 269.537 329.738 269.2 313.006 269.182C305.006 269.174 296.877 269.036 288.88 268.66C287.2 268.581 277.637 268.925 277.901 265.903C278.037 264.347 281.159 264.128 282.298 263.963C283.142 263.84 284.018 263.86 284.864 263.814C287.11 263.694 288.095 264.234 287.621 261.778C285.823 252.461 282.601 244.761 275.719 238.062C270.091 232.584 263.314 227.615 256.94 223.041C249.2 217.486 242.921 211.645 238.325 203.146C235.642 198.182 233.395 193.108 232.017 187.62C231.521 185.646 231.509 183.4 230.901 181.497C230.433 180.031 229.367 179.006 228.74 177.488C221.039 190.34 210.833 201.092 201.474 212.68C197.003 218.216 191.902 223.474 186.559 228.29C184.974 229.719 183.494 231.212 182.014 232.75C180.777 234.037 178.811 235.181 177.766 236.609C176.764 237.979 177.011 237.914 178.537 239.002C180.554 240.44 182.777 241.634 184.826 243.036C188.101 245.278 191.676 247.171 194.605 249.869C197.772 252.786 200.539 256.165 203.307 259.455C205.152 261.647 207.573 264.46 208.037 267.232C208.191 268.15 208.774 270.418 208.004 271.09C207.346 271.664 207.412 271.446 206.595 271.096C205.524 270.637 205.209 269.584 203.901 269.082C200.554 267.799 196.504 268.24 193.021 268.224C189.537 268.209 186.024 268.6 182.542 268.585C174.59 268.553 166.808 269.196 158.858 269.541C150.415 269.908 141.868 269.028 133.453 269.153C127.219 269.245 120.818 268.779 114.411 269.125C111.115 269.303 107.878 268.891 104.665 268.845C100.458 268.784 96.1371 269.356 91.8938 269.438C84.9293 269.572 78.0499 269.571 71.0428 269.738C55.9707 270.099 40.98 270.471 25.899 270.71C23.8874 270.741 21.6851 270.673 19.6971 270.9C17.5871 271.14 18.6764 271.588 17.2287 272.347C13.1757 274.472 14.1117 266.597 14.2088 265.048C14.7298 256.748 16.8386 248.608 19.3728 240.728C21.777 233.255 23.7288 225.433 25.765 217.798C27.9938 209.441 30.8977 201.427 33.5346 193.152C36.2366 184.674 38.4365 175.864 43.3441 168.348C44.4619 166.637 45.617 164.795 47.4151 163.715C49.4308 162.506 49.5175 163.212 49.5159 160.998C49.5147 158.913 49.6431 156.127 49.1506 154.137C48.7055 152.339 48.7741 153.405 47.7719 152.113C46.9564 151.063 46.103 150.345 45.5179 149.07C41.9232 152.712 33.6948 150.79 30.2218 148.168C25.9709 144.958 22.733 139.542 21.5466 134.385C20.5938 130.243 21.7629 122.349 26.3506 120.357C28.587 119.386 36.8014 118.652 37.1301 115.488C37.2995 113.855 34.4084 111.558 33.7413 110.154C32.5051 107.552 31.3179 104.091 30.9743 101.238C30.3032 95.6711 32.8326 89.4458 36.862 85.6852C44.2535 78.7865 57.259 75.2461 66.767 79.6231C64.7578 71.9539 63.5449 65.338 64.5567 57.3604C65.4285 50.4878 69.4867 46.6426 75.0709 43.2193C84.6002 37.3769 97.5587 35.0709 108.455 36.7698C110.931 37.156 113.307 37.9841 115.599 38.643C118.93 39.6003 122.917 39.2815 126.062 40.8367C128.342 41.964 130.073 44.2099 132.076 45.7094C134.414 47.4599 136.356 50.0727 137.981 52.489C141.455 57.656 140.097 67.2457 137.19 72.4324C136.566 73.5449 135.796 74.4813 134.765 75.2405C133.691 76.0305 132.053 76.2764 131.5 77.301C130.082 79.9259 131.45 85.6082 131.639 88.4452C131.859 91.7393 130.192 94.2138 126.454 94.4765C124.291 94.6288 124.222 93.3752 123.187 95.9547C122.516 97.6266 121.906 99.4482 120.938 100.981C118.941 104.14 115.284 103.832 111.952 103.746C108.096 103.647 104.297 103.038 100.439 102.654C101.458 105.916 104.248 108.448 105.989 111.355C108.345 115.286 109.762 118.544 110.145 123.124C110.439 126.643 109.805 129.422 107.395 132.04C106.398 133.124 105.513 133.178 105.761 134.428C105.912 135.191 107.232 136.449 107.699 137.058C108.935 138.669 110.37 140.147 111.458 141.867C115.643 148.485 116.879 158.574 116.89 166.278C116.89 166.631 117.079 167.382 116.923 167.748C116.807 168.017 115.929 168.872 115.916 168.945C115.744 169.936 116.711 171.634 118.228 171.802C119.821 171.978 122.738 170.65 124.22 170.214C126.591 169.515 129.008 168.999 131.374 168.282C135.196 167.123 138.999 166.199 142.884 165.291C144.64 164.881 146.405 164.54 148.166 164.156C150.172 163.72 151.104 162.877 152.14 164.916C153.028 166.666 152.476 166.983 154.628 166.101C156.764 165.225 158.852 164.139 160.937 163.15C164.616 161.406 168.998 159.852 172.171 157.278C177.465 152.983 179.425 146.143 184.492 141.586C185.902 140.318 186.744 140.295 187.636 138.537C188.591 136.656 189.083 134.243 189.585 132.22C190.464 128.676 191.09 125.12 191.888 121.58C192.881 117.169 195.028 113.175 196.594 108.968C197.205 107.329 197.521 105.245 198.506 103.772C198.767 103.382 199.265 103.161 199.469 102.838C200.169 101.728 200.162 101.424 200.343 100.089C201.192 93.8504 204.919 97.1321 208.991 98.5627C210.707 99.1654 218.854 103.074 215.743 105.674C219.452 106.749 225.392 106.165 225.342 111.475C225.316 114.196 223.688 117.107 222.813 119.654C222.037 121.916 221.286 124.186 220.497 126.444C218.77 131.39 216.673 136.188 214.987 141.149C214.219 143.41 213.584 145.724 212.514 147.858C211.571 149.741 209.286 151.816 208.909 153.874C218.792 149.661 227.935 143.57 238.997 143.959C243.841 144.128 248.236 146.163 250.911 150.418C254.265 155.752 256.472 161.724 259.75 167.107C271.675 186.69 285.898 204.48 298.989 223.252C299.994 224.694 301.288 226.058 301.636 227.841C301.864 229.004 301.422 230.167 301.695 231.285C302.262 233.607 305.123 236.506 307.063 237.84C310.782 240.398 316.828 244.006 321.469 243.686C318.556 236.692 318.595 229.029 318.73 221.568C318.859 214.481 319.626 207.452 320.536 200.438C320.742 198.851 320.921 197.38 321.378 195.842C321.901 194.077 322.621 194.244 321.052 192.658C318.637 190.216 315.765 188.206 313.331 185.733C308.066 180.386 302.67 176.195 298.526 169.809C294.585 163.735 290.428 157.486 287.511 150.834C284.508 143.987 283.307 136.675 281.817 129.424C281.212 126.482 279.006 123.197 279.449 120.124C280.009 116.241 281.812 119.068 282.545 121.158C284.784 127.538 290.026 133.247 294.368 138.378C299.059 143.92 304.797 148.557 309.694 153.939C315.026 159.799 318.678 166.535 323.42 172.791C323.42 165.027 320.767 157.121 319.682 149.44C318.727 142.68 318.427 135.898 317.823 129.108C316.453 113.685 317.637 97.8075 319.561 82.4945C320.475 75.222 319.957 68.1208 319.984 60.8234C319.993 58.501 319.031 53.1483 320.257 51.0873C322.606 47.1399 323.976 55.7715 324.094 57.0585C324.804 64.7248 323.531 72.3057 324.181 79.9391C324.861 87.9106 326.337 95.6583 327.592 103.538C328.953 112.069 331.167 120.408 333.287 128.776C335.513 137.561 337.385 146.53 339.86 155.245C340.527 152.506 339.591 149.14 339.406 146.35C339.142 142.358 338.626 138.364 338.581 134.361C338.51 127.981 338.46 121.482 338.821 115.132C339.177 108.872 339.07 102.313 340.991 96.2827C341.903 93.4205 343.24 90.6281 344.549 87.9319C346.163 84.6072 346.734 81.3836 347.628 77.8477C348.394 74.8194 349.514 71.8709 350.024 68.7821C350.341 66.8611 351.226 61.1904 353.427 65.4868C354.705 67.9804 354.153 71.6772 354.189 74.3562C354.235 77.7907 353.708 81.1302 353.628 84.5503C353.471 91.2605 353.358 97.9627 352.857 104.662C352.332 111.69 352.791 117.989 354.129 124.914C355.593 132.494 356.022 140.091 356.781 147.764C357.172 151.726 357.832 155.666 358.151 159.634C358.319 161.735 357.455 167.76 358.962 169.256C359.107 165.617 360.151 161.975 360.942 158.429C361.879 154.228 362.258 149.811 362.948 145.55C364.067 138.647 366.238 132.054 367.674 125.228C370.634 111.157 373.093 93.0716 385.499 83.8613C387.122 82.6561 388.906 81.7666 390.66 80.7749C391.654 80.2134 393.13 78.7608 394.266 78.5074C395.507 78.2307 396.024 78.4456 396.527 79.8837C397.228 81.8886 395.946 82.825 394.749 84.2812C390.605 89.3199 388.835 95.779 386.277 101.688C380.419 115.22 377.827 129.492 377.797 144.119C377.781 151.776 377.253 159.161 376.435 166.772C375.556 174.962 374.398 183.625 371.908 191.504C374.405 192.064 377.115 191.229 377.793 194.131C377.96 194.843 377.659 195.686 377.843 196.613C378.022 197.515 378.453 198.412 378.708 199.298C379.234 201.132 379.513 202.942 379.769 204.825C380.759 212.103 382.459 219.026 382.64 226.405C382.807 233.226 381.47 240.138 380.239 246.828C378.998 253.566 375.44 259.31 372.639 265.404C373.845 265.404 375.05 265.416 376.256 265.429Z" fill="black"/>
<path fill-rule="evenodd" clip-rule="evenodd" d="M217.715 249.939C216.387 250.315 209.973 251.023 209.975 253.034C209.975 254.24 216.38 254.216 217.514 254.347C217.581 252.878 217.648 251.409 217.715 249.939ZM231.872 263.815C235.568 264.517 240.584 263.53 242.947 260.274C244.051 258.753 244.575 256.439 244.934 254.624C245.278 252.894 246.337 248.577 245.616 246.955C244.731 244.963 236.24 247.045 233.767 247.273C229.453 247.671 224.991 247.718 220.674 247.437C220.674 251.891 220.446 256.232 223.068 260.065C224.96 262.831 228.512 263.484 231.872 263.815ZM231.129 269.316C227.113 267.848 222.897 268.802 220.283 264.495C219.619 263.402 219.06 262.227 218.659 261.013C218.463 260.481 218.31 259.937 218.202 259.379C218.406 258.178 217.966 257.839 216.881 258.363C214.753 257.949 212.419 259.409 210.177 258.979C204.739 257.935 205.727 250.152 209.376 247.458C210.097 246.926 210.817 246.778 211.642 246.514C213.461 245.935 214.446 246.582 216.11 246.418C217.454 246.285 217.824 244.876 219.269 244.256C220.215 243.85 221.528 243.881 222.523 243.84C227.727 243.627 232.949 243.629 238.187 243.29C240.63 243.132 243.268 243.518 245.661 243.101C246.782 242.906 246.621 242.16 247.682 242.814C248.781 243.491 248.306 245.994 248.251 246.993C247.93 252.765 247.586 258.955 244.492 264.001C241.661 268.619 236.089 269.091 231.129 269.316Z" fill="black"/>
<path fill-rule="evenodd" clip-rule="evenodd" d="M19.0516 270.907C20.3436 270.893 21.6352 270.879 22.9228 270.866C21.6292 270.88 20.3404 270.893 19.0516 270.907Z" fill="black"/>
<path fill-rule="evenodd" clip-rule="evenodd" d="M377.805 147.836C377.802 146.596 377.8 145.356 377.797 144.119C377.799 145.36 377.802 146.598 377.805 147.836Z" fill="black"/>
<path fill-rule="evenodd" clip-rule="evenodd" d="M49.1545 152.929C49.1505 154.137 49.1465 155.345 49.1425 156.55C49.1461 155.341 49.1501 154.135 49.1545 152.929Z" fill="black"/>
<path fill-rule="evenodd" clip-rule="evenodd" d="M156.548 269.537C157.576 269.539 158.604 269.54 159.627 269.543C158.597 269.542 157.573 269.54 156.548 269.537Z" fill="black"/>
<path fill-rule="evenodd" clip-rule="evenodd" d="M94.1366 269.291C95.1645 269.294 96.192 269.297 97.2151 269.301C96.1856 269.299 95.1613 269.295 94.1366 269.291Z" fill="black"/>
<path fill-rule="evenodd" clip-rule="evenodd" d="M318.866 219.124C318.821 219.94 318.775 220.754 318.731 221.568C318.776 220.752 318.821 219.938 318.866 219.124Z" fill="black"/>
<path fill-rule="evenodd" clip-rule="evenodd" d="M376.256 265.429C375.462 265.42 374.667 265.412 373.873 265.404C374.671 265.071 375.465 265.086 376.256 265.429Z" fill="black"/>
<path fill-rule="evenodd" clip-rule="evenodd" d="M305.733 269.039C306.304 269.03 306.873 269.021 307.438 269.012C306.867 269.02 306.3 269.03 305.733 269.039Z" fill="black"/>
<path fill-rule="evenodd" clip-rule="evenodd" d="M377.496 157.898C377.51 157.281 377.524 156.665 377.538 156.051C377.524 156.668 377.51 157.283 377.496 157.898Z" fill="black"/>
<path fill-rule="evenodd" clip-rule="evenodd" d="M324.182 79.9392C324.135 79.3035 324.088 78.6683 324.04 78.0342C324.088 78.6703 324.135 79.3047 324.182 79.9392Z" fill="black"/>
<path fill-rule="evenodd" clip-rule="evenodd" d="M377.777 150.264C377.785 149.627 377.792 148.99 377.8 148.355C377.792 148.993 377.785 149.628 377.777 150.264Z" fill="black"/>
<path fill-rule="evenodd" clip-rule="evenodd" d="M198.492 268.249C198.999 268.256 199.506 268.263 200.009 268.27C199.501 268.262 198.997 268.255 198.492 268.249Z" fill="black"/>
<path fill-rule="evenodd" clip-rule="evenodd" d="M329.06 269.288C329.555 269.297 330.051 269.307 330.541 269.318C330.044 269.308 329.552 269.298 329.06 269.288Z" fill="black"/>
<path fill-rule="evenodd" clip-rule="evenodd" d="M382.583 224.487C382.548 223.928 382.512 223.37 382.477 222.812C382.513 223.371 382.548 223.929 382.583 224.487Z" fill="black"/>
<path fill-rule="evenodd" clip-rule="evenodd" d="M373.688 269.831C374.091 269.828 374.495 269.826 374.893 269.825C374.488 269.828 374.088 269.83 373.688 269.831Z" fill="black"/>
<path fill-rule="evenodd" clip-rule="evenodd" d="M318.733 269.313C319.133 269.304 319.532 269.294 319.927 269.284C319.526 269.294 319.129 269.304 318.733 269.313Z" fill="black"/>
<path fill-rule="evenodd" clip-rule="evenodd" d="M228.952 269.008C229.392 269.006 229.831 269.004 230.267 269C229.826 269.003 229.389 269.006 228.952 269.008Z" fill="black"/>
<path fill-rule="evenodd" clip-rule="evenodd" d="M127.563 269.007C127.981 269.009 128.399 269.013 128.813 269.016C128.393 269.014 127.978 269.01 127.563 269.007Z" fill="black"/>
<path fill-rule="evenodd" clip-rule="evenodd" d="M102.899 269.074C103.325 269.051 103.751 269.026 104.173 269.003C103.745 269.027 103.322 269.051 102.899 269.074Z" fill="black"/>
<path fill-rule="evenodd" clip-rule="evenodd" d="M220.983 106.805C220.349 106.751 219.715 106.696 219.081 106.641C219.716 106.686 220.387 106.311 220.983 106.805Z" fill="black"/>
<path fill-rule="evenodd" clip-rule="evenodd" d="M382.643 265.67C382.018 265.607 381.393 265.543 380.767 265.48C381.393 265.543 382.018 265.607 382.643 265.67Z" fill="black"/>
<path fill-rule="evenodd" clip-rule="evenodd" d="M339.026 110.653C338.984 111.2 338.942 111.748 338.9 112.294C338.942 111.745 338.984 111.199 339.026 110.653Z" fill="black"/>
<path fill-rule="evenodd" clip-rule="evenodd" d="M377.934 133.477C377.977 132.958 378.019 132.439 378.062 131.922C378.019 132.442 377.976 132.959 377.934 133.477Z" fill="black"/>
<path fill-rule="evenodd" clip-rule="evenodd" d="M338.777 119.144C338.732 119.691 338.687 120.237 338.642 120.782C338.687 120.235 338.732 119.689 338.777 119.144Z" fill="black"/>
<path fill-rule="evenodd" clip-rule="evenodd" d="M377.669 154.426C377.665 153.898 377.661 153.37 377.658 152.843C377.999 153.37 377.985 153.897 377.669 154.426Z" fill="black"/>
<path fill-rule="evenodd" clip-rule="evenodd" d="M318.875 230.276C318.87 230.805 318.866 231.335 318.86 231.862C318.51 231.328 318.58 230.801 318.875 230.276Z" fill="black"/>
<path fill-rule="evenodd" clip-rule="evenodd" d="M358.732 169.028C358.671 168.492 358.61 167.956 358.549 167.422C358.61 167.958 358.671 168.493 358.732 169.028Z" fill="black"/>
<path fill-rule="evenodd" clip-rule="evenodd" d="M28.7016 119.848C28.287 120.396 27.7223 120.021 27.2294 120.087C27.7207 120.008 28.2111 119.928 28.7016 119.848Z" fill="black"/>
<path fill-rule="evenodd" clip-rule="evenodd" d="M233.717 243.669C233.193 243.67 232.669 243.67 232.145 243.671C232.67 243.67 233.193 243.67 233.717 243.669Z" fill="black"/>
<path fill-rule="evenodd" clip-rule="evenodd" d="M317.401 122.098C317.45 122.543 317.498 122.988 317.547 123.432C317.498 122.986 317.45 122.542 317.401 122.098Z" fill="black"/>
<path fill-rule="evenodd" clip-rule="evenodd" d="M58.54 77.8862C58.0134 77.8966 57.4868 77.9071 56.9602 77.9175C57.4812 77.6111 58.0062 77.5225 58.54 77.8862Z" fill="black"/>
<path fill-rule="evenodd" clip-rule="evenodd" d="M338.764 126.845C338.73 127.311 338.696 127.778 338.662 128.243C338.696 127.776 338.73 127.31 338.764 126.845Z" fill="black"/>
<path fill-rule="evenodd" clip-rule="evenodd" d="M324.323 69.5428C324.364 69.1173 324.405 68.6918 324.445 68.2687C324.404 68.695 324.364 69.1189 324.323 69.5428Z" fill="black"/>
<path fill-rule="evenodd" clip-rule="evenodd" d="M320.185 68.2099C320.144 68.6715 320.102 69.1335 320.062 69.5935C320.103 69.1311 320.144 68.6703 320.185 68.2099Z" fill="black"/>
<path fill-rule="evenodd" clip-rule="evenodd" d="M91.4486 37.3732C90.9127 37.4381 90.3769 37.5031 89.8415 37.5677C90.3773 37.5027 90.9127 37.4381 91.4486 37.3732Z" fill="black"/>
<path fill-rule="evenodd" clip-rule="evenodd" d="M52.7472 78.2538C52.1973 78.3099 51.6475 78.3661 51.098 78.4222C51.6479 78.3661 52.1977 78.3099 52.7472 78.2538Z" fill="black"/>
<path fill-rule="evenodd" clip-rule="evenodd" d="M354.067 79.6069C354.101 79.1774 354.134 78.7475 354.167 78.3204C354.134 78.7503 354.1 79.1786 354.067 79.6069Z" fill="black"/>
<path fill-rule="evenodd" clip-rule="evenodd" d="M34.6994 150.493C35.0161 150.498 35.3324 150.503 35.6442 150.507C35.3263 150.503 35.0129 150.498 34.6994 150.493Z" fill="black"/>
<path fill-rule="evenodd" clip-rule="evenodd" d="M320.201 203.505C320.169 203.981 320.138 204.456 320.106 204.931C320.138 204.455 320.17 203.98 320.201 203.505Z" fill="black"/>
<path fill-rule="evenodd" clip-rule="evenodd" d="M352.505 110.944C352.493 110.486 352.48 110.028 352.467 109.571C352.481 110.03 352.493 110.487 352.505 110.944Z" fill="black"/>
<path fill-rule="evenodd" clip-rule="evenodd" d="M104.937 36.2885C104.449 36.2885 103.96 36.2889 103.473 36.2889C103.961 35.9537 104.449 35.9621 104.937 36.2885Z" fill="black"/>
<path fill-rule="evenodd" clip-rule="evenodd" d="M235.346 144.178C234.811 144.192 234.276 144.205 233.741 144.219C234.267 143.848 234.802 143.838 235.346 144.178Z" fill="black"/>
<path fill-rule="evenodd" clip-rule="evenodd" d="M282.101 268.23C282.418 268.236 282.735 268.243 283.048 268.251C282.73 268.245 282.415 268.237 282.101 268.23Z" fill="black"/>
<path fill-rule="evenodd" clip-rule="evenodd" d="M294.044 268.787C294.361 268.776 294.678 268.764 294.99 268.754C294.672 268.765 294.358 268.776 294.044 268.787Z" fill="black"/>
<path fill-rule="evenodd" clip-rule="evenodd" d="M107.129 269.007C107.46 269.015 107.79 269.024 108.116 269.032C107.784 269.024 107.457 269.015 107.129 269.007Z" fill="black"/>
<path fill-rule="evenodd" clip-rule="evenodd" d="M382.309 219.184C382.262 218.73 382.215 218.277 382.168 217.826C382.215 218.28 382.262 218.732 382.309 219.184Z" fill="black"/>
<path fill-rule="evenodd" clip-rule="evenodd" d="M339.169 142.786C339.206 143.218 339.244 143.65 339.281 144.079C339.243 143.647 339.206 143.216 339.169 142.786Z" fill="black"/>
<path fill-rule="evenodd" clip-rule="evenodd" d="M355.77 135.371C355.719 134.913 355.668 134.455 355.617 133.998C355.668 134.457 355.719 134.913 355.77 135.371Z" fill="black"/>
<path fill-rule="evenodd" clip-rule="evenodd" d="M109.809 269.28C110.142 269.275 110.476 269.27 110.805 269.265C110.471 269.271 110.14 269.275 109.809 269.28Z" fill="black"/>
<path fill-rule="evenodd" clip-rule="evenodd" d="M231.129 269.316C231.453 269.302 231.777 269.287 232.097 269.273C231.772 269.288 231.451 269.302 231.129 269.316Z" fill="black"/>
<path fill-rule="evenodd" clip-rule="evenodd" d="M353.061 101.928C353.046 101.464 353.032 101 353.017 100.537C353.032 101.001 353.046 101.465 353.061 101.928Z" fill="black"/>
<path fill-rule="evenodd" clip-rule="evenodd" d="M78.2203 269.583C78.5454 269.581 78.8701 269.578 79.1908 269.576C78.8641 269.579 78.5426 269.581 78.2203 269.583Z" fill="black"/>
<path fill-rule="evenodd" clip-rule="evenodd" d="M352.925 269.579C353.259 269.582 353.593 269.586 353.923 269.589C353.587 269.586 353.256 269.582 352.925 269.579Z" fill="black"/>
<path fill-rule="evenodd" clip-rule="evenodd" d="M360.14 269.539C360.462 269.562 360.785 269.585 361.103 269.607C360.779 269.584 360.459 269.562 360.14 269.539Z" fill="black"/>
<path fill-rule="evenodd" clip-rule="evenodd" d="M363.053 269.533C363.382 269.543 363.711 269.553 364.035 269.56C363.705 269.55 363.379 269.542 363.053 269.533Z" fill="black"/>
<path fill-rule="evenodd" clip-rule="evenodd" d="M378.015 137.21C377.993 136.753 377.972 136.297 377.95 135.841C377.972 136.299 377.993 136.754 378.015 137.21Z" fill="black"/>
<path fill-rule="evenodd" clip-rule="evenodd" d="M157.53 263.551C158.529 263.499 159.529 263.447 160.528 263.395C159.529 263.447 158.529 263.499 157.53 263.551Z" fill="black"/>
<path fill-rule="evenodd" clip-rule="evenodd" d="M97.2492 97.6011C98.1166 97.6765 98.9839 97.7519 99.8505 97.8265C98.9831 97.7515 98.1162 97.6761 97.2492 97.6011Z" fill="black"/>
<path fill-rule="evenodd" clip-rule="evenodd" d="M342.142 135.28C342.169 136.107 342.197 136.934 342.224 137.758C342.197 136.931 342.169 136.105 342.142 135.28Z" fill="black"/>
<path fill-rule="evenodd" clip-rule="evenodd" d="M360.042 264.965C360.948 265.02 361.853 265.075 362.758 265.13C361.847 265.171 360.923 265.43 360.042 264.965Z" fill="black"/>
<path fill-rule="evenodd" clip-rule="evenodd" d="M354.684 167.149C354.691 166.36 354.698 165.571 354.704 164.784C354.698 165.573 354.691 166.361 354.684 167.149Z" fill="black"/>
<path fill-rule="evenodd" clip-rule="evenodd" d="M352.367 191.933C353.161 191.944 353.956 191.954 354.75 191.965C353.955 191.954 353.161 191.944 352.367 191.933Z" fill="black"/>
<path fill-rule="evenodd" clip-rule="evenodd" d="M152.372 178.065C152.352 178.666 152.332 179.267 152.313 179.865C152.333 179.263 152.352 178.664 152.372 178.065Z" fill="black"/>
<path fill-rule="evenodd" clip-rule="evenodd" d="M365.589 152.609C365.557 153.207 365.524 153.805 365.492 154.4C365.525 153.802 365.557 153.205 365.589 152.609Z" fill="black"/>
<path fill-rule="evenodd" clip-rule="evenodd" d="M348.639 262.303C349.217 262.264 349.795 262.225 350.372 262.188C349.938 262.535 349.5 262.564 348.639 262.303Z" fill="black"/>
<path fill-rule="evenodd" clip-rule="evenodd" d="M344.772 184.101C344.811 184.745 344.851 185.39 344.89 186.033C344.851 185.388 344.811 184.744 344.772 184.101Z" fill="black"/>
<path fill-rule="evenodd" clip-rule="evenodd" d="M128.669 82.3145C128.676 81.6917 128.682 81.0688 128.688 80.4484C128.682 81.072 128.676 81.6933 128.669 82.3145Z" fill="black"/>
<path fill-rule="evenodd" clip-rule="evenodd" d="M345.471 192.063L347.625 192.016C346.915 192.36 346.197 192.372 345.471 192.063Z" fill="black"/>
<path fill-rule="evenodd" clip-rule="evenodd" d="M365.345 196.66C364.837 196.664 364.329 196.668 363.824 196.673C364.334 196.669 364.84 196.664 365.345 196.66Z" fill="black"/>
<path fill-rule="evenodd" clip-rule="evenodd" d="M179.323 262.551C180.026 262.56 180.729 262.569 181.432 262.578C180.724 262.933 180.02 262.983 179.323 262.551Z" fill="black"/>
<path fill-rule="evenodd" clip-rule="evenodd" d="M46.8592 264.621C47.5728 264.557 48.2869 264.494 49.0005 264.43C48.2869 264.494 47.5728 264.557 46.8592 264.621Z" fill="black"/>
<path fill-rule="evenodd" clip-rule="evenodd" d="M342.39 140.591C342.425 141.238 342.46 141.885 342.495 142.531C342.46 141.883 342.425 141.237 342.39 140.591Z" fill="black"/>
<path fill-rule="evenodd" clip-rule="evenodd" d="M114.597 99.1206C115.199 98.8243 115.805 98.7746 116.418 99.0886C115.811 99.0994 115.204 99.1102 114.597 99.1206Z" fill="black"/>
<path fill-rule="evenodd" clip-rule="evenodd" d="M322.71 148.065C322.76 148.611 322.809 149.157 322.859 149.701C322.809 149.155 322.76 148.61 322.71 148.065Z" fill="black"/>
<path fill-rule="evenodd" clip-rule="evenodd" d="M373.534 135.325C373.225 134.791 373.235 134.259 373.549 133.733C373.544 134.264 373.539 134.795 373.534 135.325Z" fill="black"/>
<path fill-rule="evenodd" clip-rule="evenodd" d="M342.488 116.781C342.488 117.321 342.489 117.862 342.489 118.4C342.488 117.859 342.488 117.32 342.488 116.781Z" fill="black"/>
<path fill-rule="evenodd" clip-rule="evenodd" d="M364.056 191.675C364.675 191.485 365.294 191.217 365.911 191.681C365.292 191.679 364.674 191.677 364.056 191.675Z" fill="black"/>
<path fill-rule="evenodd" clip-rule="evenodd" d="M163.932 263.307C164.555 263.248 165.178 263.191 165.801 263.133C165.178 263.191 164.555 263.248 163.932 263.307Z" fill="black"/>
<path fill-rule="evenodd" clip-rule="evenodd" d="M78.5029 263.308C79.0736 263.057 79.6432 262.926 80.2055 263.327C79.6376 263.32 79.0704 263.314 78.5029 263.308Z" fill="black"/>
<path fill-rule="evenodd" clip-rule="evenodd" d="M195.246 262.504C195.856 262.237 196.465 262.091 197.068 262.522C196.46 262.516 195.853 262.51 195.246 262.504Z" fill="black"/>
<path fill-rule="evenodd" clip-rule="evenodd" d="M59.3878 183.608C59.4335 184.159 59.4797 184.71 59.5251 185.259C59.4789 184.708 59.4331 184.158 59.3878 183.608Z" fill="black"/>
<path fill-rule="evenodd" clip-rule="evenodd" d="M201.08 151.893C201.681 151.675 202.279 151.561 202.869 151.925C202.272 151.914 201.676 151.904 201.08 151.893Z" fill="black"/>
<path fill-rule="evenodd" clip-rule="evenodd" d="M342.381 168.283C342.414 168.821 342.447 169.359 342.48 169.896C342.447 169.358 342.414 168.82 342.381 168.283Z" fill="black"/>
<path fill-rule="evenodd" clip-rule="evenodd" d="M58.9997 119.72C58.95 120.154 58.9002 120.588 58.8508 121.019C58.9006 120.584 58.95 120.153 58.9997 119.72Z" fill="black"/>
<path fill-rule="evenodd" clip-rule="evenodd" d="M24.1964 245.443C24.1655 245.866 24.135 246.287 24.1045 246.707C24.1362 246.284 24.1663 245.864 24.1964 245.443Z" fill="black"/>
<path fill-rule="evenodd" clip-rule="evenodd" d="M354.95 171.131C354.917 170.695 354.883 170.259 354.849 169.824C354.883 170.261 354.917 170.697 354.95 171.131Z" fill="black"/>
<path fill-rule="evenodd" clip-rule="evenodd" d="M311.222 261.689C311.757 261.692 312.292 261.696 312.826 261.7C312.291 261.696 311.756 261.692 311.222 261.689Z" fill="black"/>
<path fill-rule="evenodd" clip-rule="evenodd" d="M152.169 181.778C152.269 182.095 152.369 182.413 152.469 182.731C151.801 182.893 151.701 182.575 152.169 181.778Z" fill="black"/>
<path fill-rule="evenodd" clip-rule="evenodd" d="M192.287 151.175C192.83 151.172 193.373 151.17 193.917 151.168C193.374 151.425 192.831 151.602 192.287 151.175Z" fill="black"/>
<path fill-rule="evenodd" clip-rule="evenodd" d="M59.6923 186.215C59.7108 186.697 59.7293 187.178 59.7469 187.658C59.7281 187.176 59.71 186.696 59.6923 186.215Z" fill="black"/>
<path fill-rule="evenodd" clip-rule="evenodd" d="M65.4416 263.834C65.9662 263.834 66.4904 263.834 67.015 263.833C66.49 263.834 65.9662 263.834 65.4416 263.834Z" fill="black"/>
<path fill-rule="evenodd" clip-rule="evenodd" d="M324.029 191.29C324.048 191.733 324.068 192.176 324.088 192.617C324.069 192.172 324.049 191.731 324.029 191.29Z" fill="black"/>
<path fill-rule="evenodd" clip-rule="evenodd" d="M54.3053 264.375C54.821 264.032 55.338 264.062 55.8557 264.369C55.3388 264.371 54.8218 264.373 54.3053 264.375Z" fill="black"/>
<path fill-rule="evenodd" clip-rule="evenodd" d="M67.8867 113.529C67.9144 113.982 67.9424 114.435 67.9713 114.884C67.9437 114.431 67.9152 113.98 67.8867 113.529Z" fill="black"/>
<path fill-rule="evenodd" clip-rule="evenodd" d="M51.6219 264.421C52.1581 264.423 52.6943 264.426 53.2302 264.428C52.6923 264.794 52.1565 264.811 51.6219 264.421Z" fill="black"/>
<path fill-rule="evenodd" clip-rule="evenodd" d="M348.549 106.428C348.553 105.969 348.557 105.509 348.561 105.051C348.557 105.511 348.553 105.969 348.549 106.428Z" fill="black"/>
<path fill-rule="evenodd" clip-rule="evenodd" d="M102.37 98.3911C102.883 98.458 103.396 98.525 103.909 98.5916C103.396 98.5246 102.883 98.458 102.37 98.3911Z" fill="black"/>
<path fill-rule="evenodd" clip-rule="evenodd" d="M57.1058 138.054C57.1126 138.483 57.1195 138.912 57.1275 139.339C57.1207 138.909 57.1134 138.482 57.1058 138.054Z" fill="black"/>
<path fill-rule="evenodd" clip-rule="evenodd" d="M352.002 137.992C351.974 137.555 351.946 137.118 351.917 136.683C351.946 137.121 351.974 137.557 352.002 137.992Z" fill="black"/>
<path fill-rule="evenodd" clip-rule="evenodd" d="M232.365 263.909C232.998 263.966 233.631 264.024 234.264 264.081C233.631 264.023 232.998 263.966 232.365 263.909Z" fill="black"/>
<path fill-rule="evenodd" clip-rule="evenodd" d="M230.251 247.537C229.908 247.543 229.567 247.548 229.228 247.555C229.571 247.551 229.911 247.544 230.251 247.537Z" fill="black"/>
<path fill-rule="evenodd" clip-rule="evenodd" d="M230.28 263.658C230.81 263.711 231.342 263.763 231.872 263.815C231.341 263.763 230.81 263.711 230.28 263.658Z" fill="black"/>
<path fill-rule="evenodd" clip-rule="evenodd" d="M134.746 227.938C135.436 231.838 129.371 235.652 128.89 230.108C128.714 228.081 130.071 226.656 131.59 225.417C133.746 223.658 134.951 225.342 134.746 227.938Z" fill="black"/>
<path fill-rule="evenodd" clip-rule="evenodd" d="M67.889 180.36C69.3179 180.944 80.2347 184.498 74.5642 186.286C73.063 186.759 70.7941 186.83 69.4929 185.996C67.9276 184.993 66.3486 182.032 67.889 180.36Z" fill="black"/>
<path fill-rule="evenodd" clip-rule="evenodd" d="M70.5755 127.549C74.2809 127.119 77.695 133.2 73.1266 133.003C69.8013 132.859 65.3293 127.549 70.5755 127.549Z" fill="black"/>
<path fill-rule="evenodd" clip-rule="evenodd" d="M83.8308 142.459C86.925 145.156 81.1898 151.193 78.9129 148.857C77.7501 147.663 78.8225 145.092 79.7822 144.094C80.7672 143.069 82.5195 142.876 83.8308 142.459Z" fill="black"/>
<path fill-rule="evenodd" clip-rule="evenodd" d="M93.0423 212.388C91.2156 212.678 83.1827 215.301 84.858 210.537C85.497 208.72 87.279 209.259 88.9082 209.343C91.5339 209.477 93.0423 209.351 93.0423 212.388Z" fill="black"/>
<path fill-rule="evenodd" clip-rule="evenodd" d="M87.7508 224.659C90.4853 226.121 86.4881 234.301 84.2216 232.561C81.0769 230.146 85.3779 225.394 87.7508 224.659Z" fill="black"/>
<path fill-rule="evenodd" clip-rule="evenodd" d="M99.677 218.083C101.007 217.54 107.275 223.565 104.889 225.241C103.666 226.1 101.349 224.627 100.611 223.739C99.229 222.074 99.1038 220.02 99.677 218.083Z" fill="black"/>
<path fill-rule="evenodd" clip-rule="evenodd" d="M63.5128 168.841C64.8718 169.064 67.2182 169.134 67.3061 171.043C67.3832 172.72 65.2788 173.263 63.7974 173.395C62.2601 173.531 60.2252 173.097 60.1959 171.166C60.165 169.083 63.4646 169.209 63.5128 168.841Z" fill="black"/>
<path fill-rule="evenodd" clip-rule="evenodd" d="M97.0262 251.877C98.4735 252.755 105.224 255.916 102.331 258.2C101.248 259.054 97.965 257.289 97.226 256.392C96.3442 255.322 95.4825 252.813 97.0262 251.877Z" fill="black"/>
<path fill-rule="evenodd" clip-rule="evenodd" d="M115.793 228.94C115.584 225.451 121.475 224.062 120.254 229.015C119.91 230.411 119.576 232.531 117.849 232.612C115.806 232.708 115.733 230.293 115.793 228.94Z" fill="black"/>
<path fill-rule="evenodd" clip-rule="evenodd" d="M97.5945 168.266C97.6354 170.913 92.5597 173.247 92.5204 169.052C92.4855 165.303 97.7839 164.206 97.5945 168.266Z" fill="black"/>
<path fill-rule="evenodd" clip-rule="evenodd" d="M94.2429 154.481C95.4935 154.884 97.1556 155.091 97.2656 156.679C97.3824 158.359 95.8203 159.107 94.4147 159.013C93.2619 158.936 91.5561 158.083 91.3466 156.833C91.0396 154.999 92.8313 154.879 94.2429 154.481Z" fill="black"/>
<path fill-rule="evenodd" clip-rule="evenodd" d="M70.9867 202.94C70.9654 200.756 75.346 198.131 76.1527 200.666C76.4108 201.476 74.3462 205.113 73.6594 205.385C71.8424 206.106 71.5888 204.426 70.9867 202.94Z" fill="black"/>
<path fill-rule="evenodd" clip-rule="evenodd" d="M106.883 239.292C105.403 240.616 100.962 244.334 101.294 239.342C101.506 236.153 107.273 236.32 106.883 239.292Z" fill="black"/>
<path fill-rule="evenodd" clip-rule="evenodd" d="M179.226 253.56C179.712 251.461 186.659 255.102 184.34 257.754C183.562 258.644 181.528 257.838 180.746 257.311C179.198 256.267 179.164 255.303 179.226 253.56Z" fill="black"/>
<path fill-rule="evenodd" clip-rule="evenodd" d="M140.521 208.628C140.792 207.692 141.093 206.038 141.986 205.441C143.603 204.36 145.01 205.99 145.011 207.708C145.011 210.912 141.361 211.923 140.521 208.628Z" fill="black"/>
<path fill-rule="evenodd" clip-rule="evenodd" d="M123.303 246.093C125.107 246.506 129.123 250.887 126.794 252.674C124.552 254.394 121.571 247.401 123.303 246.093Z" fill="black"/>
<path fill-rule="evenodd" clip-rule="evenodd" d="M125.02 212.931C127.339 213.116 130.527 216.869 126.922 217.465C124.103 217.932 120.824 213.851 125.02 212.931Z" fill="black"/>
<path fill-rule="evenodd" clip-rule="evenodd" d="M146.016 230.199C146.597 228.242 152.349 230.339 152.026 232.494C151.854 233.64 149.502 233.909 148.266 233.606C146.446 233.16 145.974 231.967 146.016 230.199Z" fill="black"/>
<path fill-rule="evenodd" clip-rule="evenodd" d="M78.218 120.873C78.2597 118.342 83.1263 117.311 83.4827 119.861C83.805 122.165 78.157 124.617 78.218 120.873Z" fill="black"/>
<path fill-rule="evenodd" clip-rule="evenodd" d="M144.408 256.274C144.759 255.002 144.91 253.47 146.501 253.303C148.322 253.111 148.268 254.506 148.054 255.952C147.472 259.887 145.246 260.083 144.408 256.274Z" fill="black"/>
<path fill-rule="evenodd" clip-rule="evenodd" d="M67.5559 150.981C65.0188 151.553 60.3722 146.671 63.2123 145.623C65.2135 144.884 67.5559 149.508 67.5559 150.981Z" fill="black"/>
<path fill-rule="evenodd" clip-rule="evenodd" d="M99.9149 188.905C98.6237 189.513 98.3263 189.881 97.3345 188.884C96.4708 188.016 96.5089 185.597 97.2503 184.694C100.09 181.235 100.023 187.505 99.9149 188.905Z" fill="black"/>
<path fill-rule="evenodd" clip-rule="evenodd" d="M110.449 181.89C111.796 182.062 115.797 185.854 113.714 187.361C111.16 189.207 109.716 183.423 110.449 181.89Z" fill="black"/>
<path fill-rule="evenodd" clip-rule="evenodd" d="M139.584 182.889C138.605 186.655 136.162 184.121 136.3 181.271C136.522 176.707 139.054 180.682 139.584 182.889Z" fill="black"/>
<path fill-rule="evenodd" clip-rule="evenodd" d="M154.439 243.377C156.095 244.061 158.343 250.386 155.977 250.726C153.321 251.106 154.205 244.694 154.439 243.377Z" fill="black"/>
<path fill-rule="evenodd" clip-rule="evenodd" d="M133.758 239.823C135.653 239.184 136.348 243.178 135.246 243.92C132.823 245.552 133.334 240.766 133.758 239.823Z" fill="black"/>
<path fill-rule="evenodd" clip-rule="evenodd" d="M115.793 228.94C115.769 229.47 115.745 230.001 115.721 230.528C115.744 229.997 115.768 229.468 115.793 228.94Z" fill="black"/>
<path fill-rule="evenodd" clip-rule="evenodd" d="M179.226 253.56C179.207 254.104 179.187 254.647 179.167 255.188C179.186 254.643 179.206 254.102 179.226 253.56Z" fill="black"/>
<path fill-rule="evenodd" clip-rule="evenodd" d="M146.016 230.199C146.005 230.66 145.994 231.122 145.982 231.58C145.992 231.118 146.004 230.658 146.016 230.199Z" fill="black"/>
<path fill-rule="evenodd" clip-rule="evenodd" d="M355.609 222.262C359.537 222.136 363.92 220.659 367.78 221.129C368.843 221.258 371.289 221.526 369.587 223.101C368.772 223.854 364.874 223.464 363.694 223.714C356.481 225.24 348.293 226.224 340.897 226.097C337.435 226.038 333.947 225.761 330.486 225.578C327.028 225.395 326.688 223.991 330.579 223.544C334.621 223.081 338.768 223.253 342.829 223.248C347.099 223.242 351.347 222.547 355.609 222.262Z" fill="black"/>
<path fill-rule="evenodd" clip-rule="evenodd" d="M364.233 212.805C363.855 213.88 363.523 216.349 362.074 216.511C360.045 216.738 359.709 213.256 359.784 211.983C359.874 210.446 360.428 207.893 362.34 208.426C363.954 208.875 364.116 211.575 364.233 212.805Z" fill="black"/>
<path fill-rule="evenodd" clip-rule="evenodd" d="M351.948 212.017C352.244 210.865 352.39 208.268 354.02 208.18C355.843 208.082 356.363 210.788 356.351 212.084C356.339 213.315 355.883 215.64 354.432 215.924C352.465 216.31 352.29 213.333 351.948 212.017Z" fill="black"/>
<path fill-rule="evenodd" clip-rule="evenodd" d="M331.488 214.083C330.897 215.468 330.507 217.375 328.68 216.431C327.267 215.701 327.07 212.757 327.336 211.409C327.613 210.012 328.197 208.411 329.803 209.039C331.655 209.763 331.468 212.559 331.488 214.083Z" fill="black"/>
<path fill-rule="evenodd" clip-rule="evenodd" d="M346.981 212.805C345.24 218.08 342.064 214.511 343.27 210.573C344.531 206.456 346.821 210.454 346.981 212.805Z" fill="black"/>
<path fill-rule="evenodd" clip-rule="evenodd" d="M338.496 213.066C338.013 213.995 337.498 215.998 336.194 215.787C334.596 215.528 334.545 212.455 334.72 211.31C334.873 210.309 335.324 208.639 336.661 208.661C338.594 208.692 338.465 211.863 338.496 213.066Z" fill="black"/>
<path fill-rule="evenodd" clip-rule="evenodd" d="M373.235 214.078C371.939 216.985 370.156 214.481 370.726 212.417C371.573 209.356 373.162 212.068 373.235 214.078Z" fill="black"/>
<path fill-rule="evenodd" clip-rule="evenodd" d="M341.485 223.251C340.07 223.246 338.653 223.241 337.238 223.235C338.655 222.969 340.071 222.865 341.485 223.251Z" fill="black"/>
<path fill-rule="evenodd" clip-rule="evenodd" d="M369.622 221.117C368.394 221.125 367.166 221.132 365.939 221.14C367.164 220.773 368.392 220.765 369.622 221.117Z" fill="black"/>
<path fill-rule="evenodd" clip-rule="evenodd" d="M355.609 222.262C354.626 222.328 353.643 222.394 352.66 222.459C353.643 222.394 354.626 222.328 355.609 222.262Z" fill="black"/>
<path fill-rule="evenodd" clip-rule="evenodd" d="M331.488 214.083C331.479 213.378 331.469 212.673 331.461 211.97C331.824 212.671 331.799 213.375 331.488 214.083Z" fill="black"/>
<path fill-rule="evenodd" clip-rule="evenodd" d="M339.192 226.082C339.762 226.088 340.332 226.092 340.897 226.098C340.325 226.092 339.758 226.088 339.192 226.082Z" fill="black"/>
<path fill-rule="evenodd" clip-rule="evenodd" d="M329.621 225.578C330.198 225.578 330.776 225.578 331.349 225.578C330.769 225.578 330.195 225.578 329.621 225.578Z" fill="black"/>
<path fill-rule="evenodd" clip-rule="evenodd" d="M334.354 223.312C333.551 223.378 332.748 223.444 331.946 223.51C332.749 223.444 333.551 223.378 334.354 223.312Z" fill="black"/>
<path fill-rule="evenodd" clip-rule="evenodd" d="M345.207 223.243C344.414 223.244 343.622 223.246 342.829 223.247C343.621 222.914 344.414 222.904 345.207 223.243Z" fill="black"/>
<path fill-rule="evenodd" clip-rule="evenodd" d="M338.496 213.066C338.477 212.331 338.457 211.596 338.439 210.862C338.459 211.598 338.478 212.332 338.496 213.066Z" fill="black"/>
<path fill-rule="evenodd" clip-rule="evenodd" d="M327.336 211.409C327.332 212.125 327.328 212.842 327.322 213.556C327.326 212.839 327.331 212.124 327.336 211.409Z" fill="black"/>
<path fill-rule="evenodd" clip-rule="evenodd" d="M360.112 221.995C359.411 222.059 358.711 222.122 358.011 222.185C358.712 222.122 359.412 222.059 360.112 221.995Z" fill="black"/>
<path fill-rule="evenodd" clip-rule="evenodd" d="M373.235 214.078C373.212 213.452 373.19 212.826 373.167 212.201C373.19 212.828 373.212 213.453 373.235 214.078Z" fill="black"/>
<path fill-rule="evenodd" clip-rule="evenodd" d="M343.426 226.103C343.914 226.094 344.401 226.085 344.884 226.076C344.395 226.086 343.91 226.095 343.426 226.103Z" fill="black"/>
<path fill-rule="evenodd" clip-rule="evenodd" d="M364.233 212.805C364.19 212.355 364.147 211.904 364.105 211.456C364.148 211.907 364.191 212.356 364.233 212.805Z" fill="black"/>
<path fill-rule="evenodd" clip-rule="evenodd" d="M346.982 212.805C346.95 212.343 346.918 211.88 346.887 211.42C346.919 211.882 346.95 212.344 346.982 212.805Z" fill="black"/>
<path fill-rule="evenodd" clip-rule="evenodd" d="M95.4704 77.0403C93.5523 76.5373 93.1927 73.8439 93.5009 72.1896C93.8505 71.3924 94.2001 70.5955 94.5497 69.7982C94.4128 69.5035 94.2764 69.2087 94.1399 68.9139C94.3153 67.2721 93.867 66.5586 95.7554 67.2235C99.2634 68.4596 99.8241 76.9135 95.4704 77.0403Z" fill="black"/>
<path fill-rule="evenodd" clip-rule="evenodd" d="M123.864 71.8326C125.444 71.7082 128.314 73.547 126.741 75.326C125.767 76.4281 122.555 75.9068 121.245 76.137C119.508 76.4421 117.695 76.8596 118.635 74.2593C119.374 72.2172 122.01 71.7792 123.864 71.8326Z" fill="black"/>
<path fill-rule="evenodd" clip-rule="evenodd" d="M122.201 84.0638C120.596 82.7777 121.312 76.9196 123.755 77.9736C126.268 79.0584 123.54 83.2184 122.201 84.0638Z" fill="black"/>
<path fill-rule="evenodd" clip-rule="evenodd" d="M93.5009 72.1896C93.5009 72.806 93.5005 73.4228 93.4993 74.0364C93.1645 73.4188 93.175 72.804 93.5009 72.1896Z" fill="black"/>
<path fill-rule="evenodd" clip-rule="evenodd" d="M95.4705 77.0403C95.7976 77.0311 96.1251 77.0214 96.4482 77.013C96.1195 77.0234 95.7952 77.0319 95.4705 77.0403Z" fill="black"/>
<path fill-rule="evenodd" clip-rule="evenodd" d="M293.658 245.745C293.508 248.41 290.645 246.44 290.848 244.657C291.217 241.422 293.047 244.619 293.658 245.745Z" fill="black"/>
</svg>
